<svg width="207" height="187" viewBox="0 0 207 187" fill="none" xmlns="http://www.w3.org/2000/svg">
<path d="M54.7603 11.1514H151.504L158.805 3.84961H195.312L202.614 11.1514V47.6592L195.312 54.96V113.371L202.614 120.673V164.48L180.71 186.385H25.5552L3.65088 164.48V120.673L10.9526 113.371V54.96L3.65088 47.6592V11.1514L10.9526 3.84961H47.4595L54.7603 11.1514Z" fill="url(#paint0_radial_7001_340)" fill-opacity="0.48"/>
<path d="M54.7603 11.1514H151.504L158.805 3.84961H195.312L202.614 11.1514V47.6592L195.312 54.96V113.371L202.614 120.673V164.48L180.71 186.385H25.5552L3.65088 164.48V120.673L10.9526 113.371V54.96L3.65088 47.6592V11.1514L10.9526 3.84961H47.4595L54.7603 11.1514Z" fill="url(#paint1_radial_7001_340)" fill-opacity="0.12"/>
<path d="M169.758 3.85059H182.899L202.614 23.5654V36.71L206.265 29.4082V22.1074H206.21L206.264 22.0527L184.412 0.200195L184.36 0.250977V0.200195H177.059L169.758 3.85059Z" fill="url(#paint2_linear_7001_340)"/>
<path d="M36.5078 3.85059H23.3652L3.65039 23.5645V36.71L0 29.4082V22.1074H0.0546875L0 22.0527L21.8535 0.200195L21.9043 0.250977V0.200195H29.2061L36.5078 3.85059Z" fill="url(#paint3_linear_7001_340)"/>
<path d="M10.9524 62.2595L18.2536 69.5607V98.7657L10.9524 106.067V62.2595Z" fill="#272A65"/>
<path d="M129.6 186.384H76.6655L83.9668 179.083H122.298L129.6 186.384Z" fill="#272A65"/>
<path d="M195.312 62.2595L188.011 69.5607V98.7657L195.312 106.067V62.2595Z" fill="#272A65"/>
<defs>
<radialGradient id="paint0_radial_7001_340" cx="0" cy="0" r="1" gradientUnits="userSpaceOnUse" gradientTransform="translate(103.133 -26.718) rotate(90) scale(132.655 206.265)">
<stop stop-color="#2D2E6D" stop-opacity="0.92"/>
<stop offset="1" stop-color="#222356" stop-opacity="0.8"/>
</radialGradient>
<radialGradient id="paint1_radial_7001_340" cx="0" cy="0" r="1" gradientTransform="matrix(103.133 170.978 -206.265 205.844 103.133 -26.7181)" gradientUnits="userSpaceOnUse">
<stop offset="0.475105" stop-color="#436DEE" stop-opacity="0"/>
<stop offset="1" stop-color="#436DEE"/>
</radialGradient>
<linearGradient id="paint2_linear_7001_340" x1="135" y1="276.81" x2="428.751" y2="82.5494" gradientUnits="userSpaceOnUse">
<stop stop-color="#434BE9"/>
<stop offset="1" stop-color="#46B5F9"/>
</linearGradient>
<linearGradient id="paint3_linear_7001_340" x1="135" y1="276.81" x2="428.751" y2="82.5494" gradientUnits="userSpaceOnUse">
<stop stop-color="#434BE9"/>
<stop offset="1" stop-color="#46B5F9"/>
</linearGradient>
</defs>
</svg>
