<svg width="28" height="21" viewBox="0 0 28 21" fill="none" xmlns="http://www.w3.org/2000/svg">
<path d="M23.7187 1.75875C21.9062 0.937125 19.9682 0.340005 17.942 0C17.6932 0.435875 17.4025 1.02214 17.2021 1.4885C15.0482 1.17468 12.9142 1.17468 10.8 1.4885C10.5996 1.02214 10.3023 0.435875 10.0513 0C8.02294 0.340005 6.08272 0.939319 4.27023 1.7631C0.614417 7.11553 -0.376613 12.335 0.118903 17.4804C2.54363 19.2347 4.89348 20.3005 7.20367 20.9978C7.77407 20.2372 8.28279 19.4287 8.72104 18.5766C7.88638 18.2693 7.08695 17.8901 6.33159 17.4499C6.53198 17.3061 6.728 17.1557 6.91738 17.0009C11.5246 19.0887 16.5304 19.0887 21.0825 17.0009C21.2741 17.1557 21.4701 17.3061 21.6683 17.4499C20.9107 17.8923 20.1091 18.2715 19.2745 18.5788C19.7127 19.4287 20.2192 20.2394 20.7918 21C23.1042 20.3026 25.4563 19.2369 27.881 17.4804C28.4624 11.5156 26.8878 6.34404 23.7187 1.75875ZM9.34871 14.316C7.96568 14.316 6.83148 13.0651 6.83148 11.5417C6.83148 10.0184 7.94146 8.76528 9.34871 8.76528C10.756 8.76528 11.8902 10.0162 11.8659 11.5417C11.8681 13.0651 10.756 14.316 9.34871 14.316ZM18.6512 14.316C17.2682 14.316 16.134 13.0651 16.134 11.5417C16.134 10.0184 17.2439 8.76528 18.6512 8.76528C20.0584 8.76528 21.1926 10.0162 21.1684 11.5417C21.1684 13.0651 20.0584 14.316 18.6512 14.316Z" fill="#7B7ED0"/>
</svg>
