<svg width="160" height="112" viewBox="0 0 160 112" fill="none" xmlns="http://www.w3.org/2000/svg">
<path d="M25.1162 20.4004C25.1162 21.505 26.0116 22.4004 27.1162 22.4004H51.0234C52.128 22.4004 53.0234 21.505 53.0234 20.4004V0.464844C53.0234 0.208118 53.2316 0 53.4883 0V0C53.745 0 53.9531 0.208118 53.9531 0.464844V20.4004C53.9531 21.505 54.8486 22.4004 55.9531 22.4004H79.8604C80.9649 22.4004 81.8604 21.505 81.8604 20.4004V0.465333C81.8604 0.208337 82.0687 0 82.3257 0V0C82.5827 0 82.791 0.208336 82.791 0.465332V20.4004C82.791 21.505 83.6864 22.4004 84.791 22.4004H108.697C109.802 22.4004 110.697 21.505 110.697 20.4004V0.465333C110.697 0.208337 110.906 0 111.163 0V0C111.42 0 111.628 0.208336 111.628 0.465332V20.4004C111.628 21.505 112.523 22.4004 113.628 22.4004H137.535C138.64 22.4004 139.535 21.505 139.535 20.4004V0.464844C139.535 0.208118 139.743 0 140 0V0C140.257 0 140.465 0.208118 140.465 0.464844V20.4004C140.465 21.505 141.36 22.4004 142.465 22.4004H159.534C159.791 22.4004 160 22.6092 160 22.8667V22.8667C160 23.1242 159.791 23.333 159.534 23.333H142.465C141.36 23.333 140.465 24.2284 140.465 25.333V49.333C140.465 50.4376 141.36 51.333 142.465 51.333H159.533C159.791 51.333 160 51.542 160 51.7998V51.7998C160 52.0576 159.791 52.2666 159.533 52.2666H142.465C141.36 52.2666 140.465 53.162 140.465 54.2666V78.2666C140.465 79.3712 141.36 80.2666 142.465 80.2666H159.533C159.791 80.2666 160 80.4756 160 80.7334V80.7334C160 80.9912 159.791 81.2002 159.533 81.2002H142.465C141.36 81.2002 140.465 82.0956 140.465 83.2002V111.535C140.465 111.792 140.257 112 140 112V112C139.743 112 139.535 111.792 139.535 111.535V83.2002C139.535 82.0956 138.64 81.2002 137.535 81.2002H113.628C112.523 81.2002 111.628 82.0956 111.628 83.2002V111.535C111.628 111.792 111.42 112 111.163 112V112C110.906 112 110.697 111.792 110.697 111.535V83.2002C110.697 82.0956 109.802 81.2002 108.697 81.2002H84.791C83.6864 81.2002 82.791 82.0956 82.791 83.2002V111.535C82.791 111.792 82.5827 112 82.3257 112V112C82.0687 112 81.8604 111.792 81.8604 111.535V83.2002C81.8604 82.0956 80.9649 81.2002 79.8604 81.2002H55.9531C54.8486 81.2002 53.9531 82.0956 53.9531 83.2002V111.535C53.9531 111.792 53.745 112 53.4883 112V112C53.2316 112 53.0234 111.792 53.0234 111.535V83.2002C53.0234 82.0956 52.128 81.2002 51.0234 81.2002H27.1162C26.0116 81.2002 25.1162 82.0956 25.1162 83.2002V111.535C25.1162 111.792 24.9079 112 24.6509 112V112C24.3939 112 24.1855 111.792 24.1855 111.535V83.2002C24.1855 82.0956 23.2901 81.2002 22.1855 81.2002H0.466797C0.208992 81.2002 0 80.9912 0 80.7334V80.7334C0 80.4756 0.208992 80.2666 0.466797 80.2666H22.1855C23.2901 80.2666 24.1855 79.3712 24.1855 78.2666V54.2666C24.1855 53.162 23.2901 52.2666 22.1855 52.2666H0.466797C0.208992 52.2666 0 52.0576 0 51.7998V51.7998C0 51.542 0.208992 51.333 0.466797 51.333H22.1855C23.2901 51.333 24.1855 50.4376 24.1855 49.333V25.333C24.1855 24.2284 23.2901 23.333 22.1855 23.333H0.466309C0.208774 23.333 0 23.1242 0 22.8667V22.8667C0 22.6092 0.208773 22.4004 0.466309 22.4004H22.1855C23.2901 22.4004 24.1855 21.505 24.1855 20.4004V0.465333C24.1855 0.208337 24.3939 0 24.6509 0V0C24.9079 0 25.1162 0.208336 25.1162 0.465332V20.4004ZM25.1162 78.2666C25.1162 79.3712 26.0116 80.2666 27.1162 80.2666H51.0234C52.128 80.2666 53.0234 79.3712 53.0234 78.2666V54.2666C53.0234 53.162 52.128 52.2666 51.0234 52.2666H27.1162C26.0116 52.2666 25.1162 53.162 25.1162 54.2666V78.2666ZM53.9531 78.2666C53.9531 79.3712 54.8486 80.2666 55.9531 80.2666H79.8604C80.9649 80.2666 81.8604 79.3712 81.8604 78.2666V54.2666C81.8604 53.162 80.9649 52.2666 79.8604 52.2666H55.9531C54.8486 52.2666 53.9531 53.162 53.9531 54.2666V78.2666ZM82.791 78.2666C82.791 79.3712 83.6864 80.2666 84.791 80.2666H108.697C109.802 80.2666 110.697 79.3712 110.697 78.2666V54.2666C110.697 53.162 109.802 52.2666 108.697 52.2666H84.791C83.6864 52.2666 82.791 53.162 82.791 54.2666V78.2666ZM111.628 78.2666C111.628 79.3712 112.523 80.2666 113.628 80.2666H137.535C138.64 80.2666 139.535 79.3712 139.535 78.2666V54.2666C139.535 53.162 138.64 52.2666 137.535 52.2666H113.628C112.523 52.2666 111.628 53.162 111.628 54.2666V78.2666ZM25.1162 49.333C25.1162 50.4376 26.0116 51.333 27.1162 51.333H51.0234C52.128 51.333 53.0234 50.4376 53.0234 49.333V25.333C53.0234 24.2284 52.128 23.333 51.0234 23.333H27.1162C26.0116 23.333 25.1162 24.2284 25.1162 25.333V49.333ZM53.9531 49.333C53.9531 50.4376 54.8486 51.333 55.9531 51.333H79.8604C80.9649 51.333 81.8604 50.4376 81.8604 49.333V25.333C81.8604 24.2284 80.9649 23.333 79.8604 23.333H55.9531C54.8486 23.333 53.9531 24.2284 53.9531 25.333V49.333ZM82.791 49.333C82.791 50.4376 83.6864 51.333 84.791 51.333H108.697C109.802 51.333 110.697 50.4376 110.697 49.333V25.333C110.697 24.2284 109.802 23.333 108.697 23.333H84.791C83.6864 23.333 82.791 24.2284 82.791 25.333V49.333ZM111.628 49.333C111.628 50.4376 112.523 51.333 113.628 51.333H137.535C138.64 51.333 139.535 50.4376 139.535 49.333V25.333C139.535 24.2284 138.64 23.333 137.535 23.333H113.628C112.523 23.333 111.628 24.2284 111.628 25.333V49.333Z" fill="url(#paint0_linear_2193_49)"/>
<defs>
<linearGradient id="paint0_linear_2193_49" x1="160" y1="56" x2="0" y2="56" gradientUnits="userSpaceOnUse">
<stop stop-color="#5E5FB8"/>
<stop offset="1" stop-color="#5E5FB8" stop-opacity="0"/>
</linearGradient>
</defs>
</svg>
