<svg width="165" height="165" viewBox="0 0 165 165" fill="none" xmlns="http://www.w3.org/2000/svg">
<path fill-rule="evenodd" clip-rule="evenodd" d="M123.138 123.741L82.5198 164.36L41.8997 123.74L82.5188 95.1854L123.138 123.741ZM72.4036 111.122L82.5188 141.88L92.6331 111.122L82.5188 104.012L72.4036 111.122Z" fill="white"/>
<path fill-rule="evenodd" clip-rule="evenodd" d="M164.587 82.2918L124.035 122.844L95.4797 82.2244L123.98 41.6844L164.587 82.2918ZM104.306 82.2244L111.416 92.3387L142.174 82.2244L111.416 72.1092L104.306 82.2244Z" fill="white"/>
<path fill-rule="evenodd" clip-rule="evenodd" d="M69.5579 82.2244L41.0022 122.843L0.451416 82.2918L41.0579 41.6854L69.5579 82.2244ZM22.8645 82.2244L53.6204 92.3387L60.7317 82.2244L53.6204 72.1092L22.8645 82.2244Z" fill="white"/>
<path fill-rule="evenodd" clip-rule="evenodd" d="M123.058 40.7625L82.5188 69.2635L41.9797 40.7635L82.5198 0.224426L123.058 40.7625ZM72.4036 53.326L82.5188 60.4373L92.6331 53.326L82.5188 22.5701L72.4036 53.326Z" fill="white"/>
<path fill-rule="evenodd" clip-rule="evenodd" d="M104.306 82.2244L155.879 155.585L82.5188 104.012L9.15836 155.585L60.7317 82.2244L9.15836 8.86407L82.5188 60.4373L155.879 8.86407L104.306 82.2244ZM82.5188 69.2635L38.8771 38.5828L69.5579 82.2244L38.8771 125.866L82.5188 95.1854L126.16 125.866L95.4797 82.2244L126.16 38.5828L82.5188 69.2635Z" fill="white"/>
</svg>
