<svg width="360" height="120" viewBox="0 0 360 120" fill="none" xmlns="http://www.w3.org/2000/svg">
<g clip-path="url(#clip0_5036_3787)">
<rect width="360" height="120" fill="white"/>
<rect width="360" height="120" fill="url(#paint0_linear_5036_3787)"/>
<path d="M-23 -40L17 0L-23 40L-63 0L-23 -40Z" fill="url(#paint1_linear_5036_3787)"/>
<path d="M-23 40L17 80L-23 120L-63 80L-23 40Z" fill="url(#paint2_linear_5036_3787)"/>
<path d="M57 -40L97 0L57 40L17 0L57 -40Z" fill="url(#paint3_linear_5036_3787)"/>
<path d="M57 40L97 80L57 120L17 80L57 40Z" fill="url(#paint4_linear_5036_3787)"/>
<path d="M17 0L57 40L17 80L-23 40L17 0Z" fill="url(#paint5_linear_5036_3787)"/>
<path d="M17 80L57 120L17 160L-23 120L17 80Z" fill="url(#paint6_linear_5036_3787)"/>
<path d="M377 -40L417 0L377 40L337 0L377 -40Z" fill="url(#paint7_linear_5036_3787)"/>
<path d="M377 40L417 80L377 120L337 80L377 40Z" fill="url(#paint8_linear_5036_3787)"/>
<path d="M297 -40L337 0L297 40L257 0L297 -40Z" fill="url(#paint9_linear_5036_3787)"/>
<path d="M297 40L337 80L297 120L257 80L297 40Z" fill="url(#paint10_linear_5036_3787)"/>
<path d="M217 -40L257 0L217 40L177 0L217 -40Z" fill="url(#paint11_linear_5036_3787)"/>
<path d="M217 40L257 80L217 120L177 80L217 40Z" fill="url(#paint12_linear_5036_3787)"/>
<path d="M137 -40L177 0L137 40L97 0L137 -40Z" fill="url(#paint13_linear_5036_3787)"/>
<path d="M137 40L177 80L137 120L97 80L137 40Z" fill="url(#paint14_linear_5036_3787)"/>
<path d="M97 0L137 40L97 80L57 40L97 0Z" fill="url(#paint15_linear_5036_3787)"/>
<path d="M97 80L137 120L97 160L57 120L97 80Z" fill="url(#paint16_linear_5036_3787)"/>
<path d="M337 0L377 40L337 80L297 40L337 0Z" fill="url(#paint17_linear_5036_3787)"/>
<path d="M337 80L377 120L337 160L297 120L337 80Z" fill="url(#paint18_linear_5036_3787)"/>
<path d="M257 0L297 40L257 80L217 40L257 0Z" fill="url(#paint19_linear_5036_3787)"/>
<path d="M257 80L297 120L257 160L217 120L257 80Z" fill="url(#paint20_linear_5036_3787)"/>
<path d="M177 0L217 40L177 80L137 40L177 0Z" fill="url(#paint21_linear_5036_3787)"/>
<path d="M177 80L217 120L177 160L137 120L177 80Z" fill="url(#paint22_linear_5036_3787)"/>
</g>
<defs>
<linearGradient id="paint0_linear_5036_3787" x1="180" y1="0" x2="180" y2="120" gradientUnits="userSpaceOnUse">
<stop stop-color="#00178C"/>
<stop offset="1" stop-color="#2A54FF"/>
</linearGradient>
<linearGradient id="paint1_linear_5036_3787" x1="-23" y1="-40" x2="-23" y2="40" gradientUnits="userSpaceOnUse">
<stop stop-color="#0224FF" stop-opacity="0"/>
<stop offset="1" stop-color="#071E3C" stop-opacity="0.32"/>
</linearGradient>
<linearGradient id="paint2_linear_5036_3787" x1="-23" y1="40" x2="-23" y2="120" gradientUnits="userSpaceOnUse">
<stop stop-color="#0224FF" stop-opacity="0"/>
<stop offset="1" stop-color="#071E3C" stop-opacity="0.32"/>
</linearGradient>
<linearGradient id="paint3_linear_5036_3787" x1="57" y1="-40" x2="57" y2="40" gradientUnits="userSpaceOnUse">
<stop stop-color="#0224FF" stop-opacity="0"/>
<stop offset="1" stop-color="#071E3C" stop-opacity="0.32"/>
</linearGradient>
<linearGradient id="paint4_linear_5036_3787" x1="57" y1="40" x2="57" y2="120" gradientUnits="userSpaceOnUse">
<stop stop-color="#0224FF" stop-opacity="0"/>
<stop offset="1" stop-color="#071E3C" stop-opacity="0.32"/>
</linearGradient>
<linearGradient id="paint5_linear_5036_3787" x1="17" y1="0" x2="17" y2="80" gradientUnits="userSpaceOnUse">
<stop stop-color="#0224FF" stop-opacity="0"/>
<stop offset="1" stop-color="#071E3C" stop-opacity="0.32"/>
</linearGradient>
<linearGradient id="paint6_linear_5036_3787" x1="17" y1="80" x2="17" y2="160" gradientUnits="userSpaceOnUse">
<stop stop-color="#0224FF" stop-opacity="0"/>
<stop offset="1" stop-color="#071E3C" stop-opacity="0.32"/>
</linearGradient>
<linearGradient id="paint7_linear_5036_3787" x1="377" y1="-40" x2="377" y2="40" gradientUnits="userSpaceOnUse">
<stop stop-color="#0224FF" stop-opacity="0"/>
<stop offset="1" stop-color="#071E3C" stop-opacity="0.32"/>
</linearGradient>
<linearGradient id="paint8_linear_5036_3787" x1="377" y1="40" x2="377" y2="120" gradientUnits="userSpaceOnUse">
<stop stop-color="#0224FF" stop-opacity="0"/>
<stop offset="1" stop-color="#071E3C" stop-opacity="0.32"/>
</linearGradient>
<linearGradient id="paint9_linear_5036_3787" x1="297" y1="-40" x2="297" y2="40" gradientUnits="userSpaceOnUse">
<stop stop-color="#0224FF" stop-opacity="0"/>
<stop offset="1" stop-color="#071E3C" stop-opacity="0.32"/>
</linearGradient>
<linearGradient id="paint10_linear_5036_3787" x1="297" y1="40" x2="297" y2="120" gradientUnits="userSpaceOnUse">
<stop stop-color="#0224FF" stop-opacity="0"/>
<stop offset="1" stop-color="#071E3C" stop-opacity="0.32"/>
</linearGradient>
<linearGradient id="paint11_linear_5036_3787" x1="217" y1="-40" x2="217" y2="40" gradientUnits="userSpaceOnUse">
<stop stop-color="#0224FF" stop-opacity="0"/>
<stop offset="1" stop-color="#071E3C" stop-opacity="0.32"/>
</linearGradient>
<linearGradient id="paint12_linear_5036_3787" x1="217" y1="40" x2="217" y2="120" gradientUnits="userSpaceOnUse">
<stop stop-color="#0224FF" stop-opacity="0"/>
<stop offset="1" stop-color="#071E3C" stop-opacity="0.32"/>
</linearGradient>
<linearGradient id="paint13_linear_5036_3787" x1="137" y1="-40" x2="137" y2="40" gradientUnits="userSpaceOnUse">
<stop stop-color="#0224FF" stop-opacity="0"/>
<stop offset="1" stop-color="#071E3C" stop-opacity="0.32"/>
</linearGradient>
<linearGradient id="paint14_linear_5036_3787" x1="137" y1="40" x2="137" y2="120" gradientUnits="userSpaceOnUse">
<stop stop-color="#0224FF" stop-opacity="0"/>
<stop offset="1" stop-color="#071E3C" stop-opacity="0.32"/>
</linearGradient>
<linearGradient id="paint15_linear_5036_3787" x1="97" y1="0" x2="97" y2="80" gradientUnits="userSpaceOnUse">
<stop stop-color="#0224FF" stop-opacity="0"/>
<stop offset="1" stop-color="#071E3C" stop-opacity="0.32"/>
</linearGradient>
<linearGradient id="paint16_linear_5036_3787" x1="97" y1="80" x2="97" y2="160" gradientUnits="userSpaceOnUse">
<stop stop-color="#0224FF" stop-opacity="0"/>
<stop offset="1" stop-color="#071E3C" stop-opacity="0.32"/>
</linearGradient>
<linearGradient id="paint17_linear_5036_3787" x1="337" y1="0" x2="337" y2="80" gradientUnits="userSpaceOnUse">
<stop stop-color="#0224FF" stop-opacity="0"/>
<stop offset="1" stop-color="#071E3C" stop-opacity="0.32"/>
</linearGradient>
<linearGradient id="paint18_linear_5036_3787" x1="337" y1="80" x2="337" y2="160" gradientUnits="userSpaceOnUse">
<stop stop-color="#0224FF" stop-opacity="0"/>
<stop offset="1" stop-color="#071E3C" stop-opacity="0.32"/>
</linearGradient>
<linearGradient id="paint19_linear_5036_3787" x1="257" y1="0" x2="257" y2="80" gradientUnits="userSpaceOnUse">
<stop stop-color="#0224FF" stop-opacity="0"/>
<stop offset="1" stop-color="#071E3C" stop-opacity="0.32"/>
</linearGradient>
<linearGradient id="paint20_linear_5036_3787" x1="257" y1="80" x2="257" y2="160" gradientUnits="userSpaceOnUse">
<stop stop-color="#0224FF" stop-opacity="0"/>
<stop offset="1" stop-color="#071E3C" stop-opacity="0.32"/>
</linearGradient>
<linearGradient id="paint21_linear_5036_3787" x1="177" y1="0" x2="177" y2="80" gradientUnits="userSpaceOnUse">
<stop stop-color="#0224FF" stop-opacity="0"/>
<stop offset="1" stop-color="#071E3C" stop-opacity="0.32"/>
</linearGradient>
<linearGradient id="paint22_linear_5036_3787" x1="177" y1="80" x2="177" y2="160" gradientUnits="userSpaceOnUse">
<stop stop-color="#0224FF" stop-opacity="0"/>
<stop offset="1" stop-color="#071E3C" stop-opacity="0.32"/>
</linearGradient>
<clipPath id="clip0_5036_3787">
<rect width="360" height="120" fill="white"/>
</clipPath>
</defs>
</svg>
