<svg width="24" height="30" viewBox="0 0 24 30" fill="none" xmlns="http://www.w3.org/2000/svg">
<path d="M19.6475 27.6528C19.3338 28.3529 18.8283 28.9465 18.1911 29.3627C17.554 29.7789 16.8123 30.0002 16.0547 30H3.94481C3.42675 30.0001 2.91375 29.8965 2.43511 29.6953C1.95648 29.4941 1.52158 29.1992 1.15525 28.8274C0.788932 28.4556 0.498363 28.0141 0.300142 27.5283C0.101921 27.0425 -6.77401e-05 26.5218 6.54925e-07 25.9959V8.0642C-0.000435938 7.29509 0.217421 6.54213 0.627511 5.8954C1.0376 5.24866 1.62256 4.73554 2.31242 4.41739V24.4606C2.31228 24.8799 2.39353 25.2951 2.55152 25.6825C2.70951 26.0699 2.94115 26.422 3.2332 26.7185C3.52526 27.0151 3.87201 27.2503 4.25365 27.4108C4.63529 27.5713 5.04434 27.6539 5.45743 27.6539L19.6475 27.6528ZM14.1869 7.84803V0H7.94428C7.42605 -1.6501e-07 6.9129 0.10366 6.43415 0.305056C5.9554 0.506452 5.52045 0.801635 5.15415 1.17374C4.78785 1.54584 4.49738 1.98756 4.29934 2.47366C4.10131 2.95976 3.99959 3.48071 4 4.00673V23.1762C4.00041 23.9095 4.28767 24.6126 4.79863 25.1309C5.30959 25.6492 6.00242 25.9404 6.72481 25.9404H20.0547C20.5727 25.9404 21.0857 25.8368 21.5643 25.6356C22.0429 25.4344 22.4778 25.1395 22.8441 24.7676C23.2104 24.3958 23.501 23.9544 23.6992 23.4686C23.8974 22.9828 23.9995 22.4622 23.9995 21.9363V10.2634H16.5644C15.9337 10.2628 15.329 10.0081 14.8832 9.55519C14.4373 9.10229 14.1869 8.48826 14.1869 7.84803ZM15.5527 0L24 8.90983H16.7764C16.4518 8.90983 16.1406 8.77898 15.9111 8.54605C15.6816 8.31313 15.5527 7.99721 15.5527 7.66781V0Z" fill="white"/>
</svg>
