<svg width="40" height="40" viewBox="0 0 40 40" fill="none" xmlns="http://www.w3.org/2000/svg">
<g clip-path="url(#clip0_5080_1746)">
<path fill-rule="evenodd" clip-rule="evenodd" d="M29.8516 29.9979L20.0047 39.8449L10.1574 29.9976L20.0045 23.0753L29.8516 29.9979ZM17.5523 26.9387L20.0045 34.3952L22.4565 26.9387L20.0045 25.2151L17.5523 26.9387Z" fill="#7B7ED0"/>
<path fill-rule="evenodd" clip-rule="evenodd" d="M39.8998 19.9496L30.069 29.7804L23.1465 19.9332L30.0557 10.1053L39.8998 19.9496ZM25.2862 19.9332L27.0099 22.3852L34.4664 19.9332L27.0099 17.4811L25.2862 19.9332Z" fill="#7B7ED0"/>
<path fill-rule="evenodd" clip-rule="evenodd" d="M16.8625 19.9332L9.93987 29.7802L0.109375 19.9496L9.95337 10.1056L16.8625 19.9332ZM5.54285 19.9332L12.9988 22.3852L14.7228 19.9332L12.9988 17.4811L5.54285 19.9332Z" fill="#7B7ED0"/>
<path fill-rule="evenodd" clip-rule="evenodd" d="M29.8322 9.88186L20.0045 16.7912L10.1768 9.8821L20.0047 0.0544434L29.8322 9.88186ZM17.5523 12.9276L20.0045 14.6515L22.4565 12.9276L20.0045 5.47158L17.5523 12.9276Z" fill="#7B7ED0"/>
<path fill-rule="evenodd" clip-rule="evenodd" d="M25.2862 19.9332L37.7888 37.7176L20.0045 25.2151L2.22015 37.7176L14.7228 19.9332L2.22015 2.1489L20.0045 14.6515L37.7888 2.1489L25.2862 19.9332ZM20.0045 16.7912L9.42469 9.35344L16.8625 19.9332L9.42469 30.513L20.0045 23.0753L30.5842 30.513L23.1465 19.9332L30.5842 9.35344L20.0045 16.7912Z" fill="#7B7ED0"/>
</g>
<defs>
<clipPath id="clip0_5080_1746">
<rect width="40" height="40" fill="white"/>
</clipPath>
</defs>
</svg>
