<svg width="19" height="20" viewBox="0 0 19 20" fill="none" xmlns="http://www.w3.org/2000/svg">
<path fill-rule="evenodd" clip-rule="evenodd" d="M6.47853 18.0078C4.01562 18.0078 2.01188 15.8709 2.01188 13.2443C2.01188 10.6177 4.01562 8.48081 6.47853 8.48081C8.94144 8.48081 10.9452 10.6177 10.9452 13.2443C10.9452 15.8709 8.94144 18.0078 6.47853 18.0078ZM10.9452 0.854492V2.75988H15.042L10.218 7.90631C9.14015 7.04119 7.82755 6.57373 6.47853 6.57449C5.24178 6.57449 4.0328 6.96552 3.00447 7.69826C1.97614 8.431 1.17464 9.47249 0.701313 10.691C0.227988 11.9095 0.1041 13.2504 0.345313 14.544C0.586526 15.8376 1.18201 17.0259 2.05646 17.9586C2.93091 18.8913 4.04506 19.5265 5.25802 19.7839C6.47099 20.0414 7.72829 19.9094 8.87095 19.4048C10.0136 18.9002 10.9903 18.0456 11.6775 16.949C12.3648 15.8524 12.7317 14.5632 12.7318 13.2443C12.7316 11.8053 12.293 10.4054 11.4821 9.25534L16.3052 4.1117V8.47605H18.0918V0.854492H10.9452Z" fill="#0059FF" fill-opacity="0.8"/>
</svg>
