<svg width="14" height="20" viewBox="0 0 14 20" fill="none" xmlns="http://www.w3.org/2000/svg">
<path fill-rule="evenodd" clip-rule="evenodd" d="M7.26201 12.2605C6.64811 12.2623 6.03994 12.1403 5.4726 11.9015C4.90526 11.6627 4.38998 11.3119 3.95649 10.8693C1.01316 7.8763 3.12544 2.7555 7.26201 2.7555C11.3958 2.7555 13.5137 7.87344 10.5685 10.8693C10.1349 11.312 9.61943 11.6629 9.05192 11.9017C8.48441 12.1405 7.87607 12.2624 7.26201 12.2605ZM11.8768 12.2129C16.0134 8.0078 13.0336 0.854492 7.2592 0.854492C1.49795 0.854492 -1.51745 8.0078 2.621 12.2129C3.65982 13.2706 5.36592 13.89 6.30086 14.0863V16.1102H3.49604V18.0112H6.30086V19.9122H8.17074V18.0112H10.9756V16.1102H8.17074V14.0863C10.0406 13.889 10.838 13.2687 11.8768 12.2129Z" fill="#FF00C8" fill-opacity="0.8"/>
</svg>
