<svg width="440" height="513" viewBox="0 0 440 513" fill="none" xmlns="http://www.w3.org/2000/svg">
<g clip-path="url(#clip0_7001_313)">
<path d="M300 12H196L184 0H88L76 12V64L64 76H12L0 88V172L20 192V284L0 304V465L48 513H242L252 503H416L440 479V304L420 284V192L440 172V32L408 0H312L300 12Z" fill="url(#paint0_radial_7001_313)" fill-opacity="0.48"/>
<path d="M300 12H196L184 0H88L76 12V64L64 76H12L0 88V172L20 192V284L0 304V465L48 513H242L252 503H416L440 479V304L420 284V192L440 172V32L408 0H312L300 12Z" fill="url(#paint1_radial_7001_313)" fill-opacity="0.12"/>
</g>
<defs>
<radialGradient id="paint0_radial_7001_313" cx="0" cy="0" r="1" gradientUnits="userSpaceOnUse" gradientTransform="translate(220 -74.1687) rotate(90) scale(365.509 440)">
<stop stop-color="#2D2E6D" stop-opacity="0.92"/>
<stop offset="1" stop-color="#222356" stop-opacity="0.8"/>
</radialGradient>
<radialGradient id="paint1_radial_7001_313" cx="0" cy="0" r="1" gradientTransform="matrix(-220 471.1 440 567.169 220 -74.1688)" gradientUnits="userSpaceOnUse">
<stop offset="0.475105" stop-color="#436DEE" stop-opacity="0"/>
<stop offset="1" stop-color="#436DEE"/>
</radialGradient>
<clipPath id="clip0_7001_313">
<rect width="440" height="513" fill="white" transform="matrix(-1 0 0 1 440 0)"/>
</clipPath>
</defs>
</svg>
