<svg width="1174" height="300" viewBox="0 0 1174 300" fill="none" xmlns="http://www.w3.org/2000/svg">
<path d="M266.264 150H176.264C170.084 150 166.554 157.06 170.264 162L210.764 216C215.014 221.67 221.684 225 228.764 225H320.634C326.534 225 332.094 222.22 335.634 217.5L377.824 161.25C382.824 154.58 382.824 145.42 377.824 138.75L278.264 6C275.434 2.22 270.984 0 266.264 0H168.764C164.044 0 159.594 2.22 156.764 6L109.514 69C106.684 72.78 102.234 75 97.5143 75H7.51434C1.33434 75 -2.19566 82.06 1.51434 87L154.514 291C158.764 296.67 165.434 300 172.514 300H258.764C264.944 300 268.474 292.94 264.764 288L224.264 234C220.014 228.33 213.344 225 206.264 225H120.014C113.834 225 110.304 217.94 114.014 213L213.014 81C215.844 77.22 220.294 75 225.014 75H315.014C321.194 75 324.724 82.06 321.014 87L278.264 144C275.434 147.78 270.984 150 266.264 150ZM151.264 150H58.7643C54.6443 150 52.2943 145.3 54.7643 142L101.014 80.33C103.014 77.66 107.014 77.66 109.014 80.33L155.264 142C157.734 145.3 155.384 150 151.264 150Z" fill="#6F00FF"/>
<path d="M661.777 43.0694C661.777 39.2227 664.896 36.1037 668.741 36.1037C672.587 36.1037 675.705 39.2227 675.705 43.0694C675.705 46.9162 672.587 50.0352 668.741 50.0352C664.896 50.0352 661.777 46.9162 661.777 43.0694Z" fill="white"/>
<path d="M644.331 43.0694C644.331 39.2227 647.449 36.1037 651.295 36.1037C655.141 36.1037 658.259 39.2227 658.259 43.0694C658.259 46.9162 655.141 50.0352 651.295 50.0352C647.449 50.0352 644.331 46.9162 644.331 43.0694Z" fill="white"/>
<path d="M841.111 127.203H855.137V36.1034H841.111V127.203Z" fill="white"/>
<path d="M1062.86 148.12C1062.86 144.273 1065.98 141.154 1069.83 141.154C1073.67 141.154 1076.79 144.273 1076.79 148.12C1076.79 151.967 1073.67 155.086 1069.83 155.086C1065.98 155.086 1062.86 151.967 1062.86 148.12Z" fill="white"/>
<path d="M991.955 42.9659C991.955 39.1192 995.073 36.0002 998.919 36.0002C1002.76 36.0002 1005.88 39.1192 1005.88 42.9659C1005.88 46.8126 1002.76 49.9316 998.919 49.9316C995.073 49.9316 991.955 46.8126 991.955 42.9659Z" fill="white"/>
<path d="M1045.42 148.12C1045.42 144.273 1048.54 141.154 1052.38 141.154C1056.23 141.154 1059.35 144.273 1059.35 148.12C1059.35 151.967 1056.23 155.086 1052.38 155.086C1048.54 155.086 1045.42 151.967 1045.42 148.12Z" fill="white"/>
<path d="M909.096 49.9317C909.096 46.085 912.214 42.966 916.06 42.966C919.906 42.966 923.024 46.085 923.024 49.9317C923.024 53.7785 919.906 56.8975 916.06 56.8975C912.214 56.8975 909.096 53.7785 909.096 49.9317Z" fill="white"/>
<path d="M891.65 49.9317C891.65 46.085 894.769 42.966 898.614 42.966C902.46 42.966 905.578 46.085 905.578 49.9317C905.578 53.7785 902.46 56.8975 898.614 56.8975C894.769 56.8975 891.65 53.7785 891.65 49.9317Z" fill="white"/>
<path d="M486.267 81.1194V113.268ZM551.204 113.289H546.373H544.127H533.78V113.268H532.669V63.855H518.74V113.268H500.216V56.8971H486.267V66.5491L486.285 127.221H507.171H527.142H533.78H544.127H546.373H565.132V63.855H551.204V113.289Z" fill="white"/>
<path d="M637.859 86.9043H667.49V72.9562H637.859V86.9043Z" fill="white"/>
<path d="M750.467 36.1064V113.292H745.637H743.389H736.314V89.2574C736.314 79.0808 728.067 70.8315 717.893 70.8315H709.845L728.796 36.1064H712.911L694.088 70.8559L701.892 84.7864L716.03 84.7825C719.54 84.7816 722.385 87.6261 722.385 91.1358V113.292H687.136C684.962 113.292 683.221 112.544 681.912 111.044C680.601 109.547 679.947 107.413 679.947 104.64V63.857H665.828V107.337C665.828 111.308 666.726 114.809 668.523 117.842C670.321 120.875 672.81 123.198 675.995 124.808C679.175 126.42 682.827 127.224 686.946 127.224H735.641H736.314H743.389H745.637H750.467H764.395V36.1064H750.467Z" fill="white"/>
<path d="M813.14 105.088C813.14 107.86 812.447 109.919 811.062 111.267C809.675 112.615 807.712 113.29 805.166 113.29H778.431L781.127 127.221H806.401C812.99 127.221 818.1 125.311 821.732 121.491C825.363 117.671 827.179 112.278 827.179 105.312V36.1034H813.14V105.088Z" fill="white"/>
<path d="M786.993 104H801.032V49.9327H786.993V104Z" fill="white"/>
<path d="M918.816 113.292H908.488C904.819 113.292 902.122 112.469 900.402 110.82C898.678 109.174 897.818 106.663 897.818 103.292V74.3237H883.77V105.651C883.77 112.693 885.622 118.049 889.329 121.718C893.036 125.389 898.409 127.224 905.449 127.224H932.857V63.857H918.816V113.292Z" fill="white"/>
<path d="M1037.22 127.203H1086.09V63.8541H1072.16V113.272H1051.27V36.1034H1037.22V127.203Z" fill="white"/>
<path d="M1159.21 127.222H1173.14V36.1044H1159.21V127.222Z" fill="white"/>
<path d="M1103.5 127.224H1145.29V36.1064H1131.36V113.275H1103.5V127.224Z" fill="white"/>
<path d="M1009.23 113.275H988.915V77.8061H1001.07C1005.57 77.8061 1009.23 81.4604 1009.23 85.9684V113.275ZM988.915 63.857V56.9225H974.987V113.292H960.944V36.1064H946.902V127.206H1023.17V84.7171C1023.17 73.1964 1013.84 63.857 1002.32 63.857H988.915Z" fill="white"/>
<path d="M878.177 192.528H871.768V206.459H877.165C879.636 206.459 881.565 207.153 882.95 208.538C884.334 209.924 885.028 211.928 885.028 214.548V241.963H864.474V255.895H898.955V211.628C898.955 205.336 897.216 200.58 893.734 197.359C890.252 194.14 885.064 192.528 878.177 192.528Z" fill="white"/>
<path d="M938.476 241.824H933.726C929.525 241.824 926.119 238.417 926.119 234.214V214.154C926.119 209.951 929.525 206.544 933.728 206.544H938.476V241.824ZM1131.36 241.961H1119.14H1117.79C1115.62 241.961 1113.95 241.398 1112.8 240.275C1111.63 239.152 1110.83 237.337 1110.38 234.826C1109.93 232.318 1109.71 228.666 1109.71 223.872V193.312H1095.78V234.433C1095.78 237.354 1095.29 239.508 1094.32 240.893C1093.34 242.28 1091.88 242.972 1089.94 242.972C1088.66 242.972 1087.56 242.673 1086.62 242.073C1085.69 241.474 1084.94 240.483 1084.38 239.096C1083.81 237.711 1083.53 235.894 1083.53 233.647V200.165H1069.61V232.973C1069.61 236.044 1068.91 238.309 1067.53 239.77C1066.14 241.23 1063.88 241.961 1060.73 241.961H1058.15V200.165H1044.22V241.961H952.402V192.614H932.205C921.17 192.614 912.191 201.594 912.191 212.632V235.701C912.191 246.738 921.17 255.892 932.205 255.892H1057.62C1061.59 255.892 1064.82 255.088 1067.33 253.477C1069.84 251.867 1071.51 249.601 1072.33 246.679C1073.15 248.777 1074.39 250.612 1076.04 252.184C1077.68 253.757 1079.61 254.956 1081.82 255.78C1084.03 256.603 1086.37 257.016 1088.84 257.016C1094.46 257.016 1098.8 255.313 1101.87 251.904C1102.92 250.744 1103.77 249.394 1104.46 247.884C1104.46 247.884 1105.9 255.892 1116.71 255.892H1131.36H1145.29V164.775H1131.36V241.961Z" fill="white"/>
<path d="M1159.21 255.893H1173.14V164.775H1159.21V255.893Z" fill="white"/>
<path d="M484.411 169.442C484.411 173.259 487.504 176.354 491.32 176.354C495.137 176.354 498.231 173.259 498.231 169.442C498.231 165.624 495.137 162.529 491.32 162.529C487.504 162.529 484.411 165.624 484.411 169.442Z" fill="white"/>
<path d="M473.252 162.528C469.437 162.528 466.343 165.622 466.343 169.44C466.343 173.256 469.437 176.351 473.252 176.351C477.069 176.351 480.162 173.256 480.162 169.44C480.162 165.622 477.069 162.528 473.252 162.528Z" fill="white"/>
<path d="M1117.43 63.8554H1103.5V137.03C1103.5 139.294 1101.66 141.128 1099.4 141.128H1086.09L1089.57 155.059H1100C1109.62 155.059 1117.43 147.255 1117.43 137.627V63.8554Z" fill="white"/>
<path d="M651.694 76.0149H637.767V137.028C637.767 139.291 635.933 141.125 633.67 141.125H620.236L623.778 155.057H634.267C643.892 155.057 651.695 147.252 651.694 137.625V76.0149Z" fill="white"/>
<path d="M602.535 113.288H597.785C593.583 113.288 590.178 109.881 590.178 105.678V85.4859C590.178 81.2826 593.583 77.8754 597.787 77.8754H602.535V113.288ZM613.354 113.425H616.461V63.9449H596.263C585.229 63.9449 576.25 72.9249 576.25 83.963V107.166C576.25 118.203 585.229 127.183 596.263 127.183L613.354 127.224V113.425Z" fill="white"/>
<path d="M616.462 63.8564H602.535V137.028C602.535 139.291 600.701 141.125 598.438 141.125H583.19L586.732 155.057H599.035C608.66 155.057 616.463 147.252 616.462 137.625V63.8564Z" fill="white"/>
<path d="M497.105 241.912V255.866H854.731V192.5H840.802V241.912H497.105Z" fill="white"/>
<path d="M486.285 113.288H481.535C477.333 113.288 473.928 109.881 473.928 105.678V85.3979C473.928 81.1947 477.333 77.7875 481.537 77.7875H486.285V113.288ZM497.104 113.425H500.211V63.857H480.013C468.979 63.857 460 72.8379 460 83.8751V107.166C460 118.203 468.979 127.183 480.013 127.183L497.104 127.224V113.425Z" fill="white"/>
<path d="M974.705 206.087L987.08 253.523H999.422L988.568 206.464C997.283 204.372 1004.65 205.039 1010.6 206.472L999.422 253.523H1012.06L1024.23 206.096L1021.79 196.957C1015.32 194.275 1007.83 192.528 999.568 192.528C990.705 192.528 983.28 194.434 977.121 197.034L974.705 206.087Z" fill="white"/>
<path d="M481.866 43.0694C481.866 39.2227 484.984 36.1037 488.83 36.1037C492.676 36.1037 495.794 39.2227 495.794 43.0694C495.794 46.9162 492.676 50.0352 488.83 50.0352C484.984 50.0352 481.866 46.9162 481.866 43.0694Z" fill="white"/>
<path d="M551.204 43.0694C551.204 39.2227 554.322 36.1037 558.168 36.1037C562.014 36.1037 565.132 39.2227 565.132 43.0694C565.132 46.9162 562.014 50.0352 558.168 50.0352C554.322 50.0352 551.204 46.9162 551.204 43.0694Z" fill="white"/>
<path d="M464.421 43.0694C464.421 39.2227 467.539 36.1037 471.385 36.1037C475.231 36.1037 478.349 39.2227 478.349 43.0694C478.349 46.9162 475.231 50.0352 471.385 50.0352C467.539 50.0352 464.421 46.9162 464.421 43.0694Z" fill="white"/>
<path d="M527.461 148.101C527.461 144.254 530.579 141.135 534.425 141.135C538.271 141.135 541.389 144.254 541.389 148.101C541.389 151.947 538.271 155.066 534.425 155.066C530.579 155.066 527.461 151.947 527.461 148.101Z" fill="white"/>
<path d="M510.012 148.101C510.012 144.254 513.13 141.135 516.976 141.135C520.822 141.135 523.94 144.254 523.94 148.101C523.94 151.947 520.822 155.066 516.976 155.066C513.13 155.066 510.012 151.947 510.012 148.101Z" fill="white"/>
<path d="M505.471 241.911H500.215V185.541H486.267V195.193L486.284 255.864H505.471V241.911Z" fill="white"/>
<path d="M486.285 241.931H481.535C477.333 241.931 473.928 238.524 473.928 234.32V214.041C473.928 209.837 477.333 206.43 481.537 206.43H486.285V241.931ZM497.104 242.068H500.211V192.5H480.013C468.979 192.5 460 201.481 460 212.518V235.808C460 246.845 468.979 255.825 480.013 255.825L497.104 255.866V242.068Z" fill="white"/>
<path d="M527.461 148.101C527.461 144.254 530.579 141.135 534.425 141.135C538.271 141.135 541.389 144.254 541.389 148.101C541.389 151.947 538.271 155.066 534.425 155.066C530.579 155.066 527.461 151.947 527.461 148.101Z" fill="white"/>
<path d="M510.012 148.101C510.012 144.254 513.13 141.135 516.976 141.135C520.822 141.135 523.94 144.254 523.94 148.101C523.94 151.947 520.822 155.066 516.976 155.066C513.13 155.066 510.012 151.947 510.012 148.101Z" fill="white"/>
<path d="M833.964 273.043C833.964 269.196 837.082 266.077 840.928 266.077C844.774 266.077 847.892 269.196 847.892 273.043C847.892 276.89 844.774 280.009 840.928 280.009C837.082 280.009 833.964 276.89 833.964 273.043Z" fill="white"/>
<path d="M816.516 273.043C816.516 269.196 819.634 266.077 823.48 266.077C827.325 266.077 830.444 269.196 830.444 273.043C830.444 276.89 827.325 280.009 823.48 280.009C819.634 280.009 816.516 276.89 816.516 273.043Z" fill="white"/>
<path d="M952.405 192.527H938.478V265.699C938.478 267.962 936.644 269.796 934.381 269.796H919.134L922.676 283.728H934.978C944.603 283.728 952.406 275.923 952.405 266.296V192.527Z" fill="white"/>
<path d="M793.469 144.694C793.469 143.863 793.693 143.188 794.145 142.668C794.593 142.149 795.164 141.889 795.857 141.889H801.042V134.274H797.505C794.113 134.274 791.413 135.225 789.405 137.13C787.397 139.033 786.395 141.578 786.395 144.763V153.521H804.131V146.044H793.469V144.694Z" fill="white"/>
<path d="M782.972 153.541H793.142V146.043H782.972V153.541Z" fill="white"/>
</svg>
