<svg width="848" height="300" viewBox="0 0 848 300" fill="none" xmlns="http://www.w3.org/2000/svg">
<path d="M266.264 150H176.264C170.084 150 166.554 157.06 170.264 162L210.764 216C215.014 221.67 221.684 225 228.764 225H320.634C326.534 225 332.094 222.22 335.634 217.5L377.824 161.25C382.824 154.58 382.824 145.42 377.824 138.75L278.264 6C275.434 2.22 270.984 0 266.264 0H168.764C164.044 0 159.594 2.22 156.764 6L109.514 69C106.684 72.78 102.234 75 97.5143 75H7.51434C1.33434 75 -2.19566 82.06 1.51434 87L154.514 291C158.764 296.67 165.434 300 172.514 300H258.764C264.944 300 268.474 292.94 264.764 288L224.264 234C220.014 228.33 213.344 225 206.264 225H120.014C113.834 225 110.304 217.94 114.014 213L213.014 81C215.844 77.22 220.294 75 225.014 75H315.014C321.194 75 324.724 82.06 321.014 87L278.264 144C275.434 147.78 270.984 150 266.264 150ZM151.264 150H58.7643C54.6443 150 52.2943 145.3 54.7643 142L101.014 80.33C103.014 77.66 107.014 77.66 109.014 80.33L155.264 142C157.734 145.3 155.384 150 151.264 150Z" fill="#6F00FF"/>
<path d="M460.085 262.32V162.37H502.605V177.41H476.235V203.54H498.295V218.33H476.235V247.29H502.975V262.33H460.085V262.32Z" fill="white"/>
<path d="M530.572 263.55C526.792 263.55 523.152 263.18 519.662 262.44C516.172 261.7 512.822 260.55 509.622 258.99L511.722 244.57C514.022 245.8 516.532 246.81 519.242 247.59C521.952 248.37 524.832 248.76 527.872 248.76C530.582 248.76 532.862 248.29 534.712 247.34C536.562 246.4 537.932 245.06 538.842 243.34C539.742 241.61 540.192 239.48 540.192 236.93V235.82C540.192 233.52 539.802 231.45 539.022 229.6C538.242 227.75 536.902 225.88 535.022 223.99C533.132 222.1 530.422 219.88 526.892 217.34C522.782 214.38 519.432 211.32 516.852 208.16C514.262 205 512.352 201.65 511.122 198.12C509.892 194.59 509.272 190.72 509.272 186.53V185.3C509.272 179.96 510.342 175.48 512.472 171.87C514.612 168.26 517.602 165.54 521.472 163.74C525.332 161.93 529.972 161.03 535.402 161.03C538.692 161.03 541.932 161.3 545.142 161.83C548.342 162.37 551.382 163.21 554.262 164.36L552.412 179.03C550.032 178.13 547.602 177.37 545.142 176.75C542.682 176.13 540.332 175.83 538.112 175.83C535.072 175.83 532.632 176.24 530.782 177.06C528.932 177.88 527.552 179.09 526.652 180.7C525.742 182.3 525.292 184.13 525.292 186.18V187.54C525.292 189.84 525.702 191.84 526.522 193.52C527.342 195.21 528.702 196.97 530.592 198.82C532.482 200.67 535.112 203.03 538.482 205.91C542.832 209.28 546.282 212.5 548.832 215.58C551.382 218.66 553.272 221.87 554.502 225.19C555.732 228.52 556.352 232.44 556.352 236.96V238.32C556.352 243.91 555.282 248.59 553.152 252.37C551.012 256.15 548.032 258.96 544.212 260.81C540.392 262.66 535.852 263.58 530.592 263.58L530.572 263.55Z" fill="white"/>
<path d="M821.244 263.55C817.464 263.55 813.824 263.18 810.334 262.44C806.844 261.7 803.494 260.55 800.294 258.99L802.394 244.57C804.694 245.8 807.204 246.81 809.914 247.59C812.624 248.37 815.504 248.76 818.544 248.76C821.254 248.76 823.534 248.29 825.384 247.34C827.234 246.4 828.604 245.06 829.514 243.34C830.414 241.61 830.864 239.48 830.864 236.93V235.82C830.864 233.52 830.474 231.45 829.694 229.6C828.914 227.75 827.574 225.88 825.694 223.99C823.804 222.1 821.094 219.88 817.564 217.34C813.454 214.38 810.104 211.32 807.524 208.16C804.934 205 803.024 201.65 801.794 198.12C800.564 194.59 799.944 190.72 799.944 186.53V185.3C799.944 179.96 801.014 175.48 803.144 171.87C805.284 168.26 808.274 165.54 812.144 163.74C816.004 161.93 820.644 161.03 826.074 161.03C829.364 161.03 832.604 161.3 835.814 161.83C839.014 162.37 842.054 163.21 844.934 164.36L843.084 179.03C840.704 178.13 838.274 177.37 835.814 176.75C833.354 176.13 831.004 175.83 828.784 175.83C825.744 175.83 823.304 176.24 821.454 177.06C819.604 177.88 818.224 179.09 817.324 180.7C816.414 182.3 815.964 184.13 815.964 186.18V187.54C815.964 189.84 816.374 191.84 817.194 193.52C818.014 195.21 819.374 196.97 821.264 198.82C823.154 200.67 825.784 203.03 829.154 205.91C833.504 209.28 836.954 212.5 839.504 215.58C842.054 218.66 843.944 221.87 845.174 225.19C846.404 228.52 847.024 232.44 847.024 236.96V238.32C847.024 243.91 845.954 248.59 843.824 252.37C841.684 256.15 838.704 258.96 834.884 260.81C831.064 262.66 826.524 263.58 821.264 263.58L821.244 263.55Z" fill="white"/>
<path d="M566.434 262.32V162.37H588.744C595.804 162.37 601.354 163.44 605.384 165.57C609.404 167.71 612.224 170.73 613.824 174.63C615.424 178.53 616.224 183.48 616.224 189.48V195.64C616.224 201.89 615.364 207.04 613.634 211.11C611.904 215.18 609.034 218.24 605.004 220.29C600.974 222.35 595.554 223.37 588.734 223.37H582.574V262.31H566.434V262.32ZM588.494 208.34C591.454 208.34 593.794 207.91 595.524 207.05C597.254 206.19 598.444 204.85 599.094 203.05C599.754 201.24 600.084 198.82 600.084 195.78V189.49C600.084 186.29 599.714 183.86 598.974 182.22C598.234 180.58 597.024 179.37 595.334 178.58C593.654 177.8 591.374 177.41 588.494 177.41H582.584V208.34H588.494Z" fill="white"/>
<path d="M651.104 263.551C645.514 263.551 640.815 262.501 636.995 260.411C633.175 258.311 630.235 255.151 628.185 250.921C626.125 246.691 625.104 241.411 625.104 235.081V189.851C625.104 183.281 626.155 177.831 628.245 173.521C630.335 169.211 633.315 166.001 637.185 163.911C641.045 161.811 645.685 160.771 651.115 160.771C656.544 160.771 661.284 161.86 665.104 164.04C668.924 166.22 671.844 169.461 673.854 173.771C675.864 178.081 676.875 183.451 676.875 189.851V235.081C676.875 241.571 675.844 246.911 673.794 251.101C671.734 255.291 668.804 258.411 664.984 260.471C661.164 262.521 656.545 263.551 651.125 263.551H651.104ZM651.104 248.391C653.404 248.391 655.255 247.921 656.655 246.971C658.055 246.031 659.074 244.631 659.734 242.781C660.394 240.931 660.724 238.731 660.724 236.191V188.251C660.724 185.541 660.374 183.301 659.674 181.531C658.974 179.761 657.904 178.39 656.474 177.4C655.034 176.41 653.245 175.921 651.115 175.921C648.735 175.921 646.825 176.391 645.385 177.341C643.945 178.281 642.895 179.681 642.245 181.531C641.585 183.381 641.255 185.621 641.255 188.251V236.191C641.255 238.821 641.585 241.021 642.245 242.781C642.905 244.551 643.975 245.921 645.445 246.911C646.925 247.901 648.815 248.391 651.115 248.391H651.104Z" fill="white"/>
<path d="M688.324 262.32V162.37H710.134C717.284 162.37 722.884 163.44 726.954 165.57C731.024 167.71 733.874 170.71 735.524 174.57C737.164 178.43 737.984 183.36 737.984 189.36V196.88C737.984 202.63 737.104 207.44 735.334 211.3C733.564 215.16 730.624 218.12 726.524 220.17C722.414 222.23 716.954 223.25 710.134 223.25H704.464V262.32H688.324ZM710.134 211.18C713.174 211.18 715.514 210.81 717.154 210.07C718.794 209.33 719.984 208.1 720.734 206.37C721.474 204.64 721.844 202.3 721.844 199.34V189.36C721.844 186.24 721.454 183.84 720.674 182.15C719.894 180.47 718.624 179.25 716.854 178.51C715.084 177.77 712.844 177.4 710.134 177.4H704.464V211.17H710.134V211.18ZM725.784 262.32L712.474 221.77L727.514 217.33L742.554 262.31H725.794L725.784 262.32Z" fill="white"/>
<path d="M760.915 262.32V177.41H743.045V162.37H795.055V177.41H777.065V262.32H760.925H760.915Z" fill="white"/>
<path d="M481.404 138.69C477.624 138.69 473.983 138.32 470.493 137.58C467.003 136.84 463.654 135.69 460.454 134.13L462.553 119.71C464.853 120.94 467.364 121.95 470.074 122.73C472.784 123.51 475.664 123.9 478.704 123.9C481.414 123.9 483.693 123.43 485.543 122.48C487.393 121.54 488.763 120.2 489.673 118.48C490.573 116.75 491.034 114.62 491.034 112.07V110.96C491.034 108.66 490.643 106.59 489.863 104.74C489.083 102.89 487.743 101.02 485.853 99.1299C483.963 97.2399 481.254 95.0199 477.724 92.4799C473.614 89.5199 470.264 86.4599 467.684 83.2999C465.094 80.1399 463.184 76.7899 461.954 73.2599C460.724 69.7299 460.104 65.8599 460.104 61.6699V60.4399C460.104 55.0999 461.173 50.6199 463.303 47.0099C465.443 43.3999 468.433 40.6799 472.303 38.8799C476.163 37.0699 480.803 36.1699 486.233 36.1699C489.513 36.1699 492.764 36.4399 495.964 36.9699C499.164 37.5099 502.204 38.3499 505.084 39.4999L503.233 54.1699C500.853 53.2699 498.424 52.5099 495.964 51.8899C493.504 51.2699 491.154 50.9699 488.944 50.9699C485.904 50.9699 483.463 51.3799 481.613 52.1999C479.763 53.0199 478.384 54.2299 477.484 55.8399C476.584 57.4399 476.134 59.2699 476.134 61.3199V62.6799C476.134 64.9799 476.543 66.9799 477.363 68.6599C478.183 70.3499 479.544 72.1099 481.434 73.9599C483.324 75.8099 485.954 78.1699 489.324 81.0499C493.674 84.4199 497.133 87.6399 499.673 90.7199C502.223 93.7999 504.114 97.0099 505.344 100.33C506.574 103.66 507.194 107.58 507.194 112.1V113.46C507.194 119.05 506.123 123.73 503.993 127.51C501.853 131.29 498.873 134.1 495.053 135.95C491.233 137.8 486.694 138.72 481.434 138.72L481.404 138.69Z" fill="white"/>
<path d="M513.194 137.46L531.434 37.5098H554.354L572.714 137.46H557.064L551.644 105.29L559.034 112.07H526.744L534.144 105.29L528.844 137.46H513.194ZM534.394 104.18L528.604 97.2798H557.194L551.404 104.18L542.774 51.5598L534.394 104.18Z" fill="white"/>
<path d="M604.644 138.69C596.594 138.69 590.364 136.49 585.974 132.1C581.574 127.71 579.384 120.87 579.384 111.58V37.5098H595.524V111.83C595.524 114.71 595.854 117.01 596.514 118.73C597.174 120.46 598.134 121.71 599.414 122.49C600.684 123.27 602.394 123.66 604.534 123.66C606.834 123.66 608.624 123.23 609.894 122.37C611.164 121.51 612.034 120.19 612.484 118.43C612.934 116.66 613.164 114.47 613.164 111.84V37.5098H629.304V111.58C629.304 120.45 627.274 127.19 623.204 131.79C619.134 136.39 612.954 138.69 604.654 138.69H604.644Z" fill="white"/>
<path d="M642.604 137.46V37.5098H665.405C672.055 37.5098 677.464 38.5598 681.614 40.6498C685.764 42.7398 688.784 45.9498 690.674 50.2598C692.564 54.5698 693.505 60.1398 693.505 66.9598V107.51C693.505 114.9 692.584 120.76 690.734 125.07C688.884 129.38 685.944 132.52 681.924 134.5C677.894 136.47 672.435 137.46 665.535 137.46H642.615H642.604ZM665.155 122.42C667.945 122.42 670.205 121.99 671.935 121.13C673.655 120.27 674.995 118.83 675.935 116.82C676.875 114.81 677.354 112.03 677.354 108.5V65.8598C677.354 62.4098 676.885 59.7198 675.935 57.7898C674.995 55.8598 673.635 54.5098 671.865 53.7198C670.095 52.9398 667.855 52.5498 665.145 52.5498H658.734V122.43H665.145L665.155 122.42Z" fill="white"/>
<path d="M704.965 137.46V37.5098H721.105V137.46H704.965Z" fill="white"/>
</svg>
