<svg xmlns="http://www.w3.org/2000/svg">
<defs>
<font id="YapariTrial-Bold" horiz-adv-x="1048" >
  <font-face 
    font-family="Yapari"
    font-weight="700"
    font-stretch="normal"
    units-per-em="1000"
    panose-1="0 0 0 0 0 0 0 0 0 0"
    ascent="800"
    descent="-200"
    x-height="600"
    cap-height="720"
    bbox="0 -260 1847 933"
    underline-thickness="100"
    underline-position="-60"
    unicode-range="U+000D-2265"
  />
<missing-glyph horiz-adv-x="537" 
d="M40 0v720h457v-720h-457zM235 667h-22v-91h111v91h-23v-67h-23v67h-21v-67h-22v67zM444 667h-111v-46l111 -19l-111 -22v-46h111v24h-111l111 21v45l-110 20h110v23zM92 559h111v25h-39v56h39v25h-60v-29q-2 9 -6.5 19t-15.5 10q-17 0 -23 -14t-6 -28v-64zM128 640
q8 0 11.5 -5t3.5 -12v-39h-29v39q0 7 3 12t11 5zM250 568q-17 0 -27 -10t-10 -27v-69h111v24h-40q0 10 0.5 24t-2 27t-9.5 22t-23 9zM92 460h111v91h-23v-66h-23v66h-21v-66h-21v66h-23v-91zM250 543q8 0 10.5 -5.5t2.5 -11.5v-40h-28v39q0 8 3 13t12 5zM444 467
q0 28 -13.5 43.5t-42.5 15.5t-42 -16t-13 -43q0 -26 13.5 -43t41.5 -17q29 0 42.5 16.5t13.5 43.5zM388 502q17 0 25 -9.5t8 -25.5q0 -35 -33 -35q-16 0 -24 10t-8 25t8 25t24 10zM282 384v9h42v24h-42v9l-69 28v-26l46 -19v-8l-46 -20v-26zM92 309v-25l111 17v49l-111 19
l111 20v49l-111 15v-25l110 -14v-1l-110 -20v-49l110 -18zM444 343q0 20 -9.5 36t-30.5 21v-25q9 -3 13 -13t4 -19q0 -32 -33 -32q-32 0 -32 32q0 8 3.5 18.5t12.5 13.5v24q-21 -3 -30 -19t-9 -36q0 -26 14.5 -42t40.5 -16t41 15.5t15 41.5zM235 243v40h89v24h-89v40h-22
v-104h22zM92 224q0 -28 13 -43.5t42 -15.5t42.5 15.5t13.5 43.5t-13.5 43.5t-42.5 15.5t-42 -16t-13 -43zM444 261q0 14 -14 14l-9 -4q-4 -4 -4 -10q0 -14 13 -14q14 0 14 14zM147 259q17 0 25 -9.5t8 -25.5q0 -35 -33 -35q-16 0 -24 10t-8 25t8 25t24 10zM287 155v79h-25
v-79h25zM163 75q0 10 0.5 24t-2 27t-9.5 22t-23 9q-17 0 -27 -10.5t-10 -27.5v-68h111v24h-40zM129 131q13 0 13 -16v-40h-28v39q0 8 3 12.5t12 4.5z" />
    <glyph glyph-name=".notdef" horiz-adv-x="537" 
d="M40 0v720h457v-720h-457zM235 667h-22v-91h111v91h-23v-67h-23v67h-21v-67h-22v67zM444 667h-111v-46l111 -19l-111 -22v-46h111v24h-111l111 21v45l-110 20h110v23zM92 559h111v25h-39v56h39v25h-60v-29q-2 9 -6.5 19t-15.5 10q-17 0 -23 -14t-6 -28v-64zM128 640
q8 0 11.5 -5t3.5 -12v-39h-29v39q0 7 3 12t11 5zM250 568q-17 0 -27 -10t-10 -27v-69h111v24h-40q0 10 0.5 24t-2 27t-9.5 22t-23 9zM92 460h111v91h-23v-66h-23v66h-21v-66h-21v66h-23v-91zM250 543q8 0 10.5 -5.5t2.5 -11.5v-40h-28v39q0 8 3 13t12 5zM444 467
q0 28 -13.5 43.5t-42.5 15.5t-42 -16t-13 -43q0 -26 13.5 -43t41.5 -17q29 0 42.5 16.5t13.5 43.5zM388 502q17 0 25 -9.5t8 -25.5q0 -35 -33 -35q-16 0 -24 10t-8 25t8 25t24 10zM282 384v9h42v24h-42v9l-69 28v-26l46 -19v-8l-46 -20v-26zM92 309v-25l111 17v49l-111 19
l111 20v49l-111 15v-25l110 -14v-1l-110 -20v-49l110 -18zM444 343q0 20 -9.5 36t-30.5 21v-25q9 -3 13 -13t4 -19q0 -32 -33 -32q-32 0 -32 32q0 8 3.5 18.5t12.5 13.5v24q-21 -3 -30 -19t-9 -36q0 -26 14.5 -42t40.5 -16t41 15.5t15 41.5zM235 243v40h89v24h-89v40h-22
v-104h22zM92 224q0 -28 13 -43.5t42 -15.5t42.5 15.5t13.5 43.5t-13.5 43.5t-42.5 15.5t-42 -16t-13 -43zM444 261q0 14 -14 14l-9 -4q-4 -4 -4 -10q0 -14 13 -14q14 0 14 14zM147 259q17 0 25 -9.5t8 -25.5q0 -35 -33 -35q-16 0 -24 10t-8 25t8 25t24 10zM287 155v79h-25
v-79h25zM163 75q0 10 0.5 24t-2 27t-9.5 22t-23 9q-17 0 -27 -10.5t-10 -27.5v-68h111v24h-40zM129 131q13 0 13 -16v-40h-28v39q0 8 3 12.5t12 4.5z" />
    <glyph glyph-name=".null" horiz-adv-x="0" 
 />
    <glyph glyph-name=".null" horiz-adv-x="0" 
 />
    <glyph glyph-name="uni000D" unicode="&#xd;" horiz-adv-x="250" 
 />
    <glyph glyph-name="space" unicode=" " horiz-adv-x="390" 
 />
    <glyph glyph-name="exclam" unicode="!" horiz-adv-x="380" 
d="M73 720h234l-34 -480h-166zM70 0v145h238v-145h-238z" />
    <glyph glyph-name="quotedbl" unicode="&#x22;" horiz-adv-x="700" 
d="M385 780h200l-15 -380h-170zM65 780h200l-15 -380h-170z" />
    <glyph glyph-name="numbersign" unicode="#" horiz-adv-x="1335" 
d="M1255 551v-132h-264l-71 -238h235v-132h-274l-60 -199h-170l60 199h-245l-60 -199h-170l59 199h-215v132h255l70 238h-225v132h265l75 249h170l-74 -249h245l74 249h170l-74 -249h224zM505 181h245l71 238h-245z" />
    <glyph glyph-name="dollar" unicode="$" horiz-adv-x="920" 
d="M715 468q0 16 -7 31.5t-20.5 28t-34.5 20t-50 7.5h-317q-35 0 -60.5 -17.5t-25.5 -52.5q0 -25 23 -38.5t66 -13.5h364q48 0 89 -14t72 -40.5t48.5 -65.5t17.5 -89q0 -46 -17.5 -87t-48 -71.5t-71 -48t-87.5 -17.5h-123v-90h-152v90h-108q-52 0 -94.5 22.5t-73.5 58.5
t-48 81t-17 90h165q0 -15 6.5 -30.5t20 -28t35 -20.5t51.5 -8h307q19 0 36 5.5t29.5 14.5t20 21.5t7.5 26.5q0 31 -25 40t-68 9h-353q-46 0 -88.5 14.5t-74 41.5t-50.5 67t-19 91q0 47 17.5 87.5t48 71t71.5 48t87 17.5h117v90h152v-90h114q52 0 95 -22.5t73.5 -58.5
t47.5 -81t17 -90h-165z" />
    <glyph glyph-name="percent" unicode="%" horiz-adv-x="1369" 
d="M1045 720l-512 -720h-196l512 720h196zM40 545q0 36 14 68t38 56t56 37.5t68 13.5h121q41 0 74.5 -14.5t57.5 -39.5t37.5 -57.5t13.5 -67.5v-118q0 -37 -13.5 -68.5t-37.5 -55t-57.5 -37t-74.5 -13.5h-121q-36 0 -68 13.5t-56 37.5t-38 56t-14 69v120zM300 379
q38 0 64 24t26 69v31q-2 38 -23.5 62.5t-63.5 24.5h-41q-41 0 -66.5 -26.5t-25.5 -66.5v-26q0 -41 27 -66.5t67 -25.5h36zM849 295q0 36 14 68t38 56t56 38t68 14h121q41 0 74.5 -14.5t57.5 -39.5t37.5 -57.5t13.5 -67.5v-118q0 -37 -13.5 -68.5t-37.5 -55t-57.5 -37
t-74.5 -13.5h-121q-36 0 -68 13.5t-56 37.5t-38 56t-14 69v119zM1109 130q38 0 64 24t26 69v31q-2 38 -23.5 62.5t-63.5 24.5h-41q-41 0 -66.5 -26.5t-25.5 -66.5v-26q0 -41 27 -66.5t67 -25.5h36z" />
    <glyph glyph-name="ampersand" unicode="&#x26;" horiz-adv-x="1073" 
d="M1023 0h-218l-87 59q-148 -77 -307 -77q-177 0 -269 26t-92 165q0 86 51 127t163 78q-56 43 -80 82t-24 83q0 62 40 100.5t103.5 57.5t174.5 19h288v-157h-269q-45 0 -67.5 -3.5t-39.5 -20.5q-12 -11 -12 -28q0 -10 4 -22q10 -32 316 -248q56 42 56 165q0 14 -1 29h185
q-7 -194 -101 -289zM424 140q69 2 141 37l-191 128q-126 -28 -126 -91v-2q1 -54 47 -63t114 -9h15z" />
    <glyph glyph-name="quotesingle" unicode="'" horiz-adv-x="380" 
d="M65 780h200l-15 -380h-170z" />
    <glyph glyph-name="parenleft" unicode="(" horiz-adv-x="380" 
d="M380 -213h-106q-46 0 -87 17.5t-71.5 48t-48 71t-17.5 87.5v698q0 47 17.5 87.5t48 71t71.5 48t87 17.5h106v-165h-47q-24 0 -45.5 -8.5t-37.5 -24.5t-25.5 -37.5t-9.5 -48.5v-579q0 -24 8.5 -45.5t24 -37.5t37.5 -25.5t48 -9.5h47v-165z" />
    <glyph glyph-name="parenright" unicode=")" horiz-adv-x="370" 
d="M0 -213v165h47q26 0 48 9.5t37.5 25.5t24 37.5t8.5 45.5v579q0 27 -9.5 48.5t-25.5 37.5t-37.5 24.5t-45.5 8.5h-47v165h106q47 0 87.5 -17.5t71 -48t48 -71t17.5 -87.5v-698q0 -47 -17.5 -87.5t-48 -71t-71 -48t-87.5 -17.5h-106z" />
    <glyph glyph-name="asterisk" unicode="*" horiz-adv-x="655" 
d="M113 406l-47 91l196 79l-197 79l48 91l177 -108l-19 182h111l-17 -182l176 110l48 -91l-197 -79l198 -80l-49 -90l-176 107l18 -182h-111l18 182z" />
    <glyph glyph-name="plus" unicode="+" horiz-adv-x="901" 
d="M533 443h318v-165h-318v-278h-165v278h-318v165h318v277h165v-277z" />
    <glyph glyph-name="comma" unicode="," horiz-adv-x="360" 
d="M83 0v145h194v-145l-91 -178h-87l55 178h-71z" />
    <glyph glyph-name="hyphen" unicode="-" horiz-adv-x="960" 
d="M80 265v166h800v-166h-800z" />
    <glyph glyph-name="period" unicode="." horiz-adv-x="360" 
d="M83 0v145h194v-145h-194z" />
    <glyph glyph-name="slash" unicode="/" horiz-adv-x="634" 
d="M379 800h172l-284 -950h-172z" />
    <glyph glyph-name="zero" unicode="0" 
d="M775 0h-502q-46 0 -86.5 17.5t-71 48t-48 71t-17.5 86.5v274q0 46 17.5 86.5t48 71t71 48t86.5 17.5h502q46 0 86.5 -17.5t71 -48t48 -71t17.5 -86.5v-274q0 -46 -17.5 -86.5t-48 -71t-71 -48t-86.5 -17.5zM357 165l194 390h-219q-24 0 -45.5 -9t-37.5 -24.5t-25 -37
t-9 -46.5v-156q0 -25 9 -46t25 -37t37 -25t46 -9h25zM833 282v154q0 25 -9 47t-25 38t-38 25t-47 9h-23l-194 -390h220q24 0 45.5 9t37 25t24.5 37t9 46z" />
    <glyph glyph-name="one" unicode="1" horiz-adv-x="831" 
d="M498 720v-555h283v-165h-731v165h283v382l-283 -84v173l283 84h165z" />
    <glyph glyph-name="two" unicode="2" horiz-adv-x="1002" 
d="M654 500q49 20 42 38.5t-67 18.5h-98.5t-97 -0.5t-86 -1t-65.5 -0.5q-36 0 -70.5 -2t-65.5 -8.5t-57.5 -17.5t-47.5 -29v167q37 29 88.5 42t105.5 13h540q87 0 132.5 -40t45.5 -103v-16q0 -30 -28 -63.5t-74.5 -68t-107.5 -69t-127.5 -66.5t-134.5 -60.5t-128 -50.5v-16
h609v-167h-773q-16 0 -40.5 7t-47 22t-39 37.5t-17.5 53.5l-1 54q0 17 9 35t23.5 33.5t31.5 28.5t33 19z" />
    <glyph glyph-name="three" unicode="3" horiz-adv-x="1080" 
d="M50 652q37 41 97 54.5t154 13.5h505q47 0 87.5 -16t71 -44.5t48 -67.5t17.5 -86v-18q0 -33 -9.5 -56.5t-24.5 -39t-34 -23.5t-37 -10q18 -3 37 -11.5t34 -24t24.5 -37.5t9.5 -52v-16q0 -46 -17.5 -86t-48 -69.5t-71 -46t-87.5 -16.5h-503q-49 0 -87.5 6t-69.5 16
t-54.5 24.5t-41.5 30.5v167q19 -15 42.5 -29.5t54 -25.5t69 -17.5t87.5 -6.5h482q36 0 55.5 20t20.5 44t-17.5 44t-58.5 20h-443v134h444q41 0 60 20t18 44t-21 44t-58 20h-484q-94 0 -154 -13t-97 -49v159z" />
    <glyph glyph-name="four" unicode="4" horiz-adv-x="1128" 
d="M890 265h188v-133h-188v-132h-165v132h-675v133l675 455h165v-455zM725 545l-405 -280h405v280z" />
    <glyph glyph-name="five" unicode="5" horiz-adv-x="1080" 
d="M927 555h-669l-22 -112h532q78 0 128.5 -15.5t80 -44t41.5 -69t12 -90.5q0 -47 -17.5 -88t-48 -71t-71 -47.5t-87.5 -17.5h-523q-52 0 -94.5 22.5t-73.5 58.5t-48 81t-17 90h165q0 -38 29 -62.5t84 -24.5h446q23 0 40.5 7t29.5 18.5t18 26t6 28.5t-4.5 25.5t-16 19.5
t-31 12.5t-48.5 4.5h-718l74 413h803v-165z" />
    <glyph glyph-name="six" unicode="6" horiz-adv-x="1047" 
d="M215 467v-38h559q60 0 102.5 -16.5t69.5 -43t39 -60t12 -67.5v-18q0 -40 -17.5 -80t-47.5 -72t-70.5 -52t-87.5 -20h-537q-39 0 -73 13.5t-59.5 38t-40 60t-14.5 78.5v343q0 39 14.5 73t40 59.5t59.5 40t73 14.5h540q54 0 105.5 -13t88.5 -42v-167q-21 18 -47.5 29
t-57.5 17.5t-65.5 8.5t-70.5 2h-417q-40 0 -69 -21.5t-29 -66.5zM215 307v-64q0 -19 10.5 -33.5t27 -24.5t38 -15t43.5 -5h382q55 0 86 22.5t31 58.5v10q0 32 -27.5 41.5t-87.5 9.5h-503z" />
    <glyph glyph-name="seven" unicode="7" horiz-adv-x="1021" 
d="M729 500q23 24 16 40t-54 16h-400q-36 0 -70.5 -2.5t-65.5 -9t-57.5 -17.5t-47.5 -29v167q37 29 88.5 42t105.5 13h607q25 0 48 -10t40.5 -27t26 -39t4.5 -46l-14 -64q-6 -33 -45 -81t-106 -114t-159.5 -150t-206.5 -189h-247z" />
    <glyph glyph-name="eight" unicode="8" horiz-adv-x="1028" 
d="M50 240q0 14 3 31t11 33.5t21 31t34 22.5q-21 9 -34 23.5t-21 31t-11 33.5t-3 30v16q0 47 17.5 87.5t48 71t71.5 48t87 17.5h471q52 0 95 -17t73.5 -47t47.5 -70.5t17 -87.5v-13q0 -14 -2.5 -31.5t-10 -35t-21 -32.5t-34.5 -24q21 -9 34.5 -24t21 -32.5t10 -35t2.5 -31.5
v-13q0 -47 -16.5 -87.5t-46.5 -70.5t-72.5 -47t-94.5 -17h-474q-46 0 -87 17.5t-71.5 48t-48 71.5t-17.5 87v16zM332 551q-48 0 -82.5 -19.5t-34.5 -60.5v-2q0 -11 7 -22t19 -19.5t28.5 -13.5t35.5 -5h429q40 0 59.5 18t19.5 40v4q0 38 -30 59t-82 21h-369zM703 165
q49 0 79.5 21t30.5 57v4q0 21 -19 40.5t-60 19.5h-429q-19 0 -35.5 -5t-28.5 -13t-19 -19t-7 -22v-4q0 -37 34 -58t83 -21h371z" />
    <glyph glyph-name="nine" unicode="9" horiz-adv-x="1047" 
d="M832 253v39h-559q-60 0 -102.5 16.5t-69.5 43t-39 59.5t-12 67v18q0 40 17.5 80t47.5 72t70.5 52t87.5 20h537q39 0 73 -13.5t59.5 -38t40 -59.5t14.5 -79v-343q0 -39 -14.5 -73t-40 -59.5t-59.5 -40t-73 -14.5h-540q-54 0 -105.5 13t-88.5 42v168q42 -36 105.5 -47
t135.5 -11h418q39 0 68 22t29 66zM832 414v63q0 19 -10 33.5t-27 24.5t-38 15t-44 5h-382q-23 0 -44 -4.5t-37 -15t-25.5 -27.5t-9.5 -43q0 -32 27 -41.5t87 -9.5h503z" />
    <glyph glyph-name="colon" unicode=":" horiz-adv-x="360" 
d="M83 0v145h194v-145h-194zM83 300v145h194v-145h-194z" />
    <glyph glyph-name="semicolon" unicode=";" horiz-adv-x="360" 
d="M83 0v145h194v-145l-91 -178h-87l55 178h-71zM83 300v145h194v-145h-194z" />
    <glyph glyph-name="less" unicode="&#x3c;" horiz-adv-x="900" 
d="M850 525l-593 -161l593 -161v-170l-800 231v200l800 231v-170z" />
    <glyph glyph-name="equal" unicode="=" horiz-adv-x="920" 
d="M60 438v166h800v-166h-800zM60 118v166h800v-166h-800z" />
    <glyph glyph-name="greater" unicode="&#x3e;" horiz-adv-x="900" 
d="M50 525v170l800 -231v-200l-800 -231v170l594 161z" />
    <glyph glyph-name="question" unicode="?" horiz-adv-x="866" 
d="M291 207v19q-1 46 17.5 72t65.5 49l211 118q23 12 32 28t4 30t-24.5 23.5t-52.5 9.5h-283q-69 -1 -129 -11.5t-102 -46.5v167q37 29 88.5 42t105.5 13h425q39 0 73 -14.5t59.5 -39.5t40 -59.5t14.5 -73.5v-15q0 -31 -14 -60t-43 -43l-229 -127q-29 -14 -47.5 -26.5
t-18.5 -29.5v-25h-193zM267 0v145h238v-145h-238z" />
    <glyph glyph-name="at" unicode="@" horiz-adv-x="1435" 
d="M743 -37q172 0 321 18t260 74l50 -107q-148 -71 -301 -89t-329 -18q-413 0 -558.5 125.5t-145.5 370.5q0 233 147 362t557 129q318 0 430 -53t166.5 -149.5t54.5 -229.5q0 -150 -65 -219.5t-183 -69.5q-63 0 -105.5 27.5t-57.5 77.5q-3 -24 -21.5 -47t-47 -41t-64 -29
t-71.5 -11h-260q-39 0 -73 14.5t-59.5 40t-40 59.5t-14.5 73v126q0 39 14.5 72.5t40 59t59.5 40t73 14.5h414q39 0 72 -14.5t56.5 -39t36.5 -58t13 -71.5v-116q0 -54 48 -56h10q54 0 72 42.5t18 104.5q0 118 -38.5 192.5t-124.5 106.5t-354 32q-257 0 -365 -40.5
t-155.5 -123t-47.5 -205.5q0 -129 46.5 -212t155 -122.5t366.5 -39.5zM472 356v-43q0 -45 24 -68t77 -23h292q56 0 82.5 18t26.5 64v72q0 42 -15.5 55.5t-54.5 13.5h-332q-46 0 -73 -19.5t-27 -69.5z" />
    <glyph glyph-name="A" unicode="A" horiz-adv-x="1167" 
d="M1132 0h-190l-87 135h-545l-85 -135h-190l442 720h212zM573 555l-166 -255h354l-167 255h-21z" />
    <glyph glyph-name="B" unicode="B" horiz-adv-x="1055" 
d="M761 0h-711v720h696q43 0 82.5 -17t70 -45t49 -63t18.5 -71v-11q0 -16 -6 -37.5t-20 -41t-36 -35t-54 -20.5v-22q36 0 63.5 -10t46.5 -26t28.5 -36t9.5 -40v-28q0 -37 -16.5 -75.5t-47.5 -70t-75 -51.5t-98 -20zM215 555v-111h494q32 0 49 6t25.5 14.5t10 16.5t1.5 12
t-3 14.5t-12.5 21t-26.5 18.5t-44 8h-494zM215 280v-115h528q46 0 65.5 20t19.5 49q0 4 -2.5 12t-11 15.5t-25.5 13t-46 5.5h-528z" />
    <glyph glyph-name="C" unicode="C" horiz-adv-x="1080" 
d="M865 448q0 21 -7.5 40.5t-22 34t-35 23.5t-47.5 9h-418q-51 0 -85.5 -33t-34.5 -88v-151q0 -26 9.5 -47.5t25.5 -37.5t38 -24.5t47 -8.5h418q21 0 41 8.5t36 23.5t25.5 35.5t9.5 44.5h165v-20q0 -47 -17 -93t-47.5 -82.5t-73.5 -59t-95 -22.5h-523q-46 0 -87 17.5
t-71.5 48t-48 71.5t-17.5 87v272q0 47 17.5 87.5t48 71t71.5 48t87 17.5h523q52 0 95 -22.5t73.5 -58.5t47.5 -81t17 -90v-20h-165z" />
    <glyph glyph-name="D" unicode="D" 
d="M774 0h-724v720h724q47 0 87.5 -17.5t71 -48t48 -71t17.5 -87.5v-272q0 -46 -17.5 -87t-48 -71.5t-71 -48t-87.5 -17.5zM833 282v154q0 26 -9 48t-25 37.5t-37.5 24.5t-46.5 9h-500v-390h500q25 0 46.5 8.5t37.5 24.5t25 37.5t9 46.5z" />
    <glyph glyph-name="E" unicode="E" horiz-adv-x="1005" 
d="M50 720h905v-165h-740v-113h716v-164h-716v-113h740v-165h-905v720z" />
    <glyph glyph-name="F" unicode="F" horiz-adv-x="981" 
d="M50 720h881v-165h-716v-113h692v-164h-692v-278h-165v720z" />
    <glyph glyph-name="G" unicode="G" horiz-adv-x="1080" 
d="M1030 486q-25 22 -57 35.5t-69 21t-78.5 10t-84.5 2.5h-406q-26 0 -48 -9t-38 -25t-25 -37.5t-9 -46.5v-155q0 -24 9 -45.5t25 -37t38 -25t47 -9.5h429q38 0 61 26t27 56q2 20 -4 27.5t-20 7.5h-265v165h286q92 0 133.5 -39t42.5 -100l6 -310l-161 2l13 180h-20
q0 -39 -19.5 -72t-49 -57t-63.5 -37.5t-64 -13.5h-392q-46 0 -87 17.5t-71.5 48t-48 71.5t-17.5 87v272q0 47 17.5 87.5t48 71t71.5 48t87 17.5h523q65 0 126.5 -15.5t106.5 -50.5v-168z" />
    <glyph glyph-name="H" unicode="H" horiz-adv-x="1010" 
d="M795 440v280h165v-720h-165v275h-580v-275h-165v720h165v-280h580z" />
    <glyph glyph-name="I" unicode="I" horiz-adv-x="333" 
d="M84 720h165v-720h-165v720z" />
    <glyph glyph-name="J" unicode="J" horiz-adv-x="1080" 
d="M394 720l635 -2l1 -494q0 -46 -17.5 -87t-48 -71.5t-71 -48t-87.5 -17.5h-523q-52 0 -94.5 23t-73.5 60.5t-48 85.5t-17 98v32h165q0 -25 7.5 -49.5t22 -43t35.5 -30t48 -11.5h419q27 0 48.5 9.5t37 26t24 39t8.5 47.5v268h-471v165z" />
    <glyph glyph-name="K" unicode="K" horiz-adv-x="1166" 
d="M813 720h303l-555 -361l555 -359h-304l-426 277h-161v-277h-165v720h165v-278h161z" />
    <glyph glyph-name="L" unicode="L" horiz-adv-x="1012" 
d="M51 2l-1 718h165v-555h747v-165z" />
    <glyph glyph-name="M" unicode="M" horiz-adv-x="1146" 
d="M1086 720v-720h-165v469l-341 -469h-8l-340 468v-468h-165v720h194l316 -434l317 434h192z" />
    <glyph glyph-name="N" unicode="N" horiz-adv-x="1030" 
d="M815 193v527h165v-720h-207l-558 526v-526h-165v720h208z" />
    <glyph glyph-name="O" unicode="O" 
d="M775 0h-502q-46 0 -86.5 17.5t-71 48t-48 71t-17.5 86.5v274q0 46 17.5 86.5t48 71t71 48t86.5 17.5h502q46 0 86.5 -17.5t71 -48t48 -71t17.5 -86.5v-274q0 -46 -17.5 -86.5t-48 -71t-71 -48t-86.5 -17.5zM833 283v153q0 24 -8.5 45.5t-24 38t-36.5 26t-47 9.5h-382
q-25 0 -47 -9t-38.5 -24.5t-25.5 -37t-9 -47.5v-155q0 -24 8.5 -45.5t24.5 -37t37.5 -25t47.5 -9.5h381q27 0 48.5 9.5t37.5 25.5t24.5 37.5t8.5 45.5z" />
    <glyph glyph-name="P" unicode="P" 
d="M774 145h-559v-145h-165v720h724q47 0 87.5 -17.5t71 -48t48 -71t17.5 -87.5v-127q0 -46 -17.5 -87t-48 -71.5t-71 -48t-87.5 -17.5zM833 417v29q0 51 -27 80t-93 29h-498v-245h498q64 0 92 27.5t28 79.5z" />
    <glyph glyph-name="Q" unicode="Q" 
d="M663 -112l-56 112h-334q-46 0 -86.5 17.5t-71 48t-48 71t-17.5 86.5v274q0 46 17.5 86.5t48 71t71 48t86.5 17.5h502q46 0 86.5 -17.5t71 -48t48 -71t17.5 -86.5v-274q0 -44 -16 -83t-44 -69t-65.5 -48.5t-81.5 -21.5l57 -113h-185zM833 283v152q0 26 -9 48t-25 38
t-37.5 25t-45.5 9h-383q-24 0 -45.5 -8.5t-37.5 -24.5t-25.5 -37.5t-9.5 -48.5v-152q0 -25 9 -47t25 -38t37 -25t46 -9h192l-80 157h185l79 -157h8q23 0 44.5 9t37.5 24.5t25.5 37.5t9.5 47z" />
    <glyph glyph-name="R" unicode="R" 
d="M986 0h-201l-143 208h-427v-208h-165v720h724q47 0 87.5 -17t71 -45t48 -64.5t17.5 -74.5v-105q0 -32 -13.5 -65t-36 -61t-52 -47.5t-60.5 -25.5zM833 454v24q0 32 -26 54.5t-69 22.5h-523v-182h523q50 0 72.5 25.5t22.5 55.5z" />
    <glyph glyph-name="S" unicode="S" horiz-adv-x="1080" 
d="M865 468q0 16 -7 31.5t-20.5 28t-34.5 20t-50 7.5h-457q-35 0 -60.5 -17.5t-25.5 -52.5q0 -25 23 -38.5t66 -13.5h504q48 0 89 -14t72 -40.5t48.5 -65.5t17.5 -89q0 -46 -17.5 -87t-48 -71.5t-71 -48t-87.5 -17.5h-523q-52 0 -94.5 22.5t-73.5 58.5t-48 81t-17 90h165
q0 -15 6.5 -30.5t20 -28t35 -20.5t51.5 -8h447q19 0 36 5.5t29.5 14.5t20 21.5t7.5 26.5q0 31 -25 40t-68 9h-493q-46 0 -88.5 14.5t-74 41.5t-50.5 67t-19 91q0 47 17.5 87.5t48 71t71.5 48t87 17.5h523q52 0 95 -22.5t73.5 -58.5t47.5 -81t17 -90h-165z" />
    <glyph glyph-name="T" unicode="T" horiz-adv-x="1060" 
d="M1010 720v-165h-400v-555h-165v555h-395v165h960z" />
    <glyph glyph-name="U" unicode="U" 
d="M998 719v-495q0 -46 -17.5 -87t-48 -71.5t-71 -48t-87.5 -17.5h-500q-46 0 -87 17.5t-71.5 48t-48 71.5t-17.5 87v495h165v-437q0 -26 9.5 -47.5t26 -37t38 -24t45.5 -8.5h380q25 0 46.5 8.5t37.5 24t25.5 37t9.5 47.5v437h165z" />
    <glyph glyph-name="V" unicode="V" horiz-adv-x="1285" 
d="M627 144h30l395 576h193l-483 -720h-239l-483 720h194z" />
    <glyph glyph-name="W" unicode="W" horiz-adv-x="1812" 
d="M609 163l200 557h196l200 -564h20l354 564h193l-446 -720h-239l-180 501l-182 -501h-239l-446 720h189l354 -557h26z" />
    <glyph glyph-name="X" unicode="X" horiz-adv-x="1152" 
d="M280 0h-230l356 360l-356 360l230 1l246 -248h100l246 248l230 -1l-356 -360l356 -360h-230l-249 249h-94z" />
    <glyph glyph-name="Y" unicode="Y" horiz-adv-x="1169" 
d="M602 406l297 314h220l-444 -480h-4v-240h-165v240h-5l-451 480h221l302 -314h29z" />
    <glyph glyph-name="Z" unicode="Z" horiz-adv-x="1063" 
d="M50 720h963v-162l-650 -393h650v-165h-963v163l649 392h-649v165z" />
    <glyph glyph-name="bracketleft" unicode="[" horiz-adv-x="380" 
d="M380 -213h-330v1146h330v-165h-165v-816h165v-165z" />
    <glyph glyph-name="backslash" unicode="\" horiz-adv-x="624" 
d="M369 -150l-284 950h173l284 -950h-173z" />
    <glyph glyph-name="bracketright" unicode="]" horiz-adv-x="370" 
d="M13 -213v165h165v816h-165v165h330v-1146h-330z" />
    <glyph glyph-name="asciicircum" unicode="^" horiz-adv-x="921" 
d="M596 800l265 -394h-170l-230 331l-230 -331h-171l267 394h269z" />
    <glyph glyph-name="underscore" unicode="_" horiz-adv-x="1160" 
d="M80 -172v165h1000v-165h-1000z" />
    <glyph glyph-name="a" unicode="a" horiz-adv-x="1002" 
d="M962 0h-185l19 127h-20q-9 -45 -31 -70.5t-46 -38t-45.5 -15.5t-29.5 -3h-398q-24 0 -56 8.5t-60.5 27.5t-48 48.5t-19.5 72.5l-1 87q0 28 9.5 53t31.5 44t56.5 30t84.5 11h565q-8 36 -30.5 61t-64.5 25h-411q-36 0 -70.5 -2t-65.5 -8.5t-57.5 -17.5t-47.5 -29v134
q37 29 88.5 42t105.5 13h534q41 0 76.5 -15.5t61.5 -43.5t40.5 -66t14.5 -83v-392zM791 249h-522q-33 0 -48 -12.5t-15 -36.5q0 -22 13 -37t50 -15h419q44 0 70 26t33 75z" />
    <glyph glyph-name="b" unicode="b" horiz-adv-x="1028" 
d="M764 600q47 0 87.5 -17.5t71 -48t48 -71t17.5 -87.5v-152q0 -46 -17.5 -87t-48 -71.5t-71 -48t-87.5 -17.5h-358q-39 0 -74 12t-62 31.5t-44 44t-20 49.5h-20l19 -137h-165v800h165l-19 -317h20q3 25 20 46.5t44 37t62 24.5t74 9h358zM823 327q0 57 -30.5 82.5
t-87.5 25.5h-435q-26 0 -44 -12t-21 -43v-155q3 -23 21 -41.5t40 -18.5h439q57 0 87.5 27t30.5 81v54z" />
    <glyph glyph-name="c" unicode="c" horiz-adv-x="1008" 
d="M803 330q0 27 -9.5 46.5t-24.5 32.5t-34 19.5t-39 6.5h-374q-25 0 -46 -9t-37 -24.5t-25 -37t-9 -46.5v-36q0 -23 8.5 -44.5t23.5 -37.5t36.5 -25.5t48.5 -9.5h372q16 0 35 7t35.5 21t27.5 35t11 48h165v-43q0 -48 -17 -90.5t-47.5 -74t-73.5 -50t-95 -18.5h-471
q-46 0 -87 17.5t-71.5 48t-48 71.5t-17.5 87v152q0 47 17.5 87.5t48 71t71.5 48t87 17.5h471q52 0 95 -19t73.5 -51t47.5 -75.5t17 -91.5v-33h-165z" />
    <glyph glyph-name="d" unicode="d" horiz-adv-x="1028" 
d="M264 600h358q39 0 74 -9t62 -24.5t44 -37t20 -46.5h20l-19 317h165v-800h-165l19 137h-20q-3 -25 -20 -49.5t-44 -44t-62 -31.5t-74 -12h-358q-46 0 -87 17.5t-71.5 48t-48 71.5t-17.5 87v152q0 47 17.5 87.5t48 71t71.5 48t87 17.5zM205 327v-54q0 -54 30.5 -81
t87.5 -27h440q21 0 39.5 18.5t20.5 41.5v155q-2 31 -20.5 43t-44.5 12h-434q-58 0 -88.5 -25.5t-30.5 -82.5z" />
    <glyph glyph-name="e" unicode="e" horiz-adv-x="1001" 
d="M214 236q4 -18 12.5 -35t20.5 -30t28 -21t34 -8h410q36 0 70.5 2t65.5 8.5t57.5 17.5t47.5 29v-144q-37 -29 -88.5 -42t-105.5 -13h-530q-43 0 -79 18.5t-62 49t-40.5 69.5t-14.5 80v170q0 47 14.5 86t39 67.5t58.5 44t73 15.5h550q23 0 54.5 -9t60.5 -28t49 -48t20 -69
l1 -71q1 -60 -43 -99.5t-139 -39.5h-564zM210 370h522q7 0 18 1t21 5.5t17 13t7 22.5q0 22 -17 35.5t-46 13.5h-431q-13 0 -27.5 -4.5t-27.5 -15t-23 -28t-13 -43.5z" />
    <glyph glyph-name="f" unicode="f" horiz-adv-x="749" 
d="M425 685q-22 0 -37.5 -8t-24.5 -20t-13 -27t-4 -30h363v-165h-363v-435h-165v435h-141v165h141v49q0 34 11 67.5t32.5 59.5t54.5 42.5t76 16.5h28q26 0 65.5 -4t84.5 -10.5t91 -16.5t85 -22v-134q-39 12 -78 19.5t-74 11t-63.5 5t-46.5 1.5h-22z" />
    <glyph glyph-name="g" unicode="g" horiz-adv-x="1028" 
d="M823 -18l19 170h-20q-12 -41 -33.5 -70t-48 -47t-53.5 -26.5t-50 -8.5h-373q-60 0 -102.5 22.5t-69.5 56t-39 72.5t-12 73l1 152q0 40 17.5 80t47 72t70 52t87.5 20h373q33 0 64.5 -9t57.5 -24.5t43 -37t20 -46.5h20l-19 117h165v-667q0 -39 -14.5 -73t-40 -59.5
t-59.5 -40t-73 -14.5h-540q-54 0 -105.5 13t-88.5 42v141q42 -36 105.5 -47t135.5 -11h416q45 0 70.5 28t28.5 70zM823 287v38q0 24 -9.5 44t-26 35t-39 23t-47.5 8h-379q-51 0 -83.5 -24.5t-32.5 -83.5v-53q0 -52 31.5 -80.5t114.5 -28.5h344q25 0 48 8t40.5 24t28 38.5
t10.5 51.5z" />
    <glyph glyph-name="h" unicode="h" horiz-adv-x="1028" 
d="M823 328q0 52 -29 79.5t-91 27.5h-290q-25 0 -52.5 -1t-54.5 -6.5t-53 -16t-48 -29.5v-382h-165v800h165l-19 -317h20q3 25 20 46.5t44 37t62 24.5t74 9h358q47 0 87.5 -17.5t71 -48t48 -71t17.5 -87.5v-376h-165v328z" />
    <glyph glyph-name="i" unicode="i" horiz-adv-x="293" 
d="M64 660v140h165v-140h-165zM64 0v600h165v-600h-165z" />
    <glyph glyph-name="j" unicode="j" horiz-adv-x="536" 
d="M318 660v140h178v-140h-178zM496 27q0 -254 -246 -285q-14 -2 -29 -2t-32 2q-91 11 -161 47v147q76 -44 123 -48q22 -3 43 -3h9q18 0 31 3q47 10 72 47t25 101v564h165v-573z" />
    <glyph glyph-name="k" unicode="k" horiz-adv-x="952" 
d="M630 600h282l-360 -241l360 -359h-231l-264 261l-212 -138v-123h-165v800h165l-19 -468h20z" />
    <glyph glyph-name="l" unicode="l" horiz-adv-x="293" 
d="M64 0v800h165v-800h-165z" />
    <glyph glyph-name="m" unicode="m" horiz-adv-x="1244" 
d="M548 345q0 28 -7.5 45.5t-21 27.5t-32 13.5t-39.5 3.5h-130q-35 0 -64.5 -11t-48.5 -37v-387h-165v600h165l-19 -117h20q5 26 22.5 47.5t44 37t60.5 24t73 8.5h111q49 0 82 -12t53.5 -29.5t29 -38t8.5 -37.5h18q0 17 9.5 37.5t30.5 38t54.5 29.5t81.5 12h96
q47 0 87.5 -17.5t71 -48t48 -71t17.5 -87.5v-376h-165v328q0 107 -116 107h-115q-31 0 -55.5 -6t-40.5 -28v-401h-164v345z" />
    <glyph glyph-name="n" unicode="n" horiz-adv-x="936" 
d="M731 326q0 57 -31 83t-88 26h-210q-63 0 -109.5 -9.5t-87.5 -38.5v-387h-165v600h165l-19 -117h20q4 26 21.5 47t44.5 37t62 24.5t74 8.5h264q47 0 87.5 -17.5t71 -47.5t48 -71t17.5 -88v-376h-165v326z" />
    <glyph glyph-name="o" unicode="o" horiz-adv-x="1008" 
d="M40 376q0 47 17.5 87.5t48 71t71.5 48t87 17.5h471q52 0 95 -18.5t73.5 -50t47.5 -73t17 -86.5v-150q0 -47 -17 -87.5t-47.5 -70.5t-73.5 -47t-95 -17h-471q-46 0 -87 17.5t-71.5 48t-48 71.5t-17.5 87v152zM690 165q24 0 44.5 8.5t35.5 24t24 38t9 49.5v37
q-2 23 -9.5 43t-21.5 36t-34.5 25t-47.5 9h-366q-24 0 -45.5 -8.5t-38 -24.5t-26 -37.5t-9.5 -47.5v-35q0 -25 9.5 -46t25.5 -37t38 -25t47 -9h365z" />
    <glyph glyph-name="p" unicode="p" horiz-adv-x="1028" 
d="M764 0h-358q-39 0 -74 9t-62 25t-44 37.5t-20 45.5h-20l19 -317h-165v800h165l-19 -136h20q3 25 20 49t44 43.5t62 31.5t74 12h358q47 0 87.5 -17.5t71 -48t48 -71t17.5 -87.5v-152q0 -46 -17.5 -87t-48 -71.5t-71 -48t-87.5 -17.5zM823 273v54q0 54 -30.5 81t-87.5 27
h-439q-22 0 -40 -18.5t-21 -41.5v-155q3 -30 21 -42.5t44 -12.5h435q57 0 87.5 25.5t30.5 82.5z" />
    <glyph glyph-name="q" unicode="q" horiz-adv-x="1028" 
d="M264 0q-46 0 -87 17.5t-71.5 48t-48 71.5t-17.5 87v152q0 47 17.5 87.5t48 71t71.5 48t87 17.5h358q39 0 74 -12t62 -31.5t44 -43.5t20 -49h20l-19 136h165v-800h-165l19 317h-20q-3 -24 -20 -45.5t-44 -37.5t-62 -25t-74 -9h-358zM205 273q0 -57 30.5 -82.5t88.5 -25.5
h434q26 0 44.5 12.5t20.5 42.5v155q-2 23 -20.5 41.5t-39.5 18.5h-440q-57 0 -87.5 -27t-30.5 -81v-54z" />
    <glyph glyph-name="r" unicode="r" horiz-adv-x="729" 
d="M689 435h-303q-57 0 -100 -12t-81 -36v-387h-165v600h165l-19 -129h20q4 25 21 48.5t44 41.5t61.5 28.5t73.5 10.5h283v-165z" />
    <glyph glyph-name="s" unicode="s" horiz-adv-x="897" 
d="M856 411q-46 30 -83.5 40t-73.5 10h-452q-29 0 -51 -11t-22 -42q0 -18 17 -29t51 -11h426q47 0 82.5 -9t59 -31t35.5 -57.5t12 -88.5q0 -39 -14.5 -72.5t-40 -57.5t-59.5 -38t-73 -14h-479q-27 0 -66.5 13.5t-84.5 41.5v138q45 -28 86.5 -42t64.5 -14h454q31 0 54 11.5
t23 37.5q0 17 -20.5 29.5t-55.5 12.5h-419q-48 0 -83.5 9.5t-58.5 32t-34 59t-11 89.5q0 39 14.5 72.5t40 57.5t59.5 38t73 14h472q38 0 74.5 -9.5t82.5 -39.5v-140z" />
    <glyph glyph-name="t" unicode="t" horiz-adv-x="749" 
d="M413 157h22q14 0 43.5 2.5t67.5 9t81 18.5t82 31v-147q-38 -18 -85.5 -31.5t-95 -22t-89.5 -13t-68 -4.5h-28q-39 0 -69 15t-50.5 39t-31.5 54.5t-11 62.5v264h-141v165h141v235h165v-235h363v-165h-363v-166q0 -64 18.5 -88t48.5 -24z" />
    <glyph glyph-name="u" unicode="u" horiz-adv-x="936" 
d="M205 274q0 -57 31 -83t88 -26h210q63 0 109.5 10t87.5 38v387h165v-600h-165l19 117h-20q-4 -25 -21.5 -46.5t-44.5 -37.5t-62 -24.5t-74 -8.5h-264q-46 0 -87 17.5t-71.5 47.5t-48 71t-17.5 88v376h165v-326z" />
    <glyph glyph-name="v" unicode="v" horiz-adv-x="1103" 
d="M564 123l309 477h190l-381 -600h-260l-382 600h190l311 -477h23z" />
    <glyph glyph-name="w" unicode="w" horiz-adv-x="1604" 
d="M561 123l152 477h175l154 -477h19l312 477h191l-384 -600h-272l-108 348l-105 -348h-271l-384 600h192l311 -477h18z" />
    <glyph glyph-name="x" unicode="x" horiz-adv-x="1006" 
d="M270 0h-230l317 301l-317 299h230l214 -193h39l213 193h230l-316 -299l316 -301h-230l-215 196h-36z" />
    <glyph glyph-name="y" unicode="y" horiz-adv-x="1125" 
d="M894 600h191l-373 -585q-31 -48 -71.5 -97t-91 -88.5t-110 -64.5t-130.5 -25q-54 0 -108.5 12t-125.5 37v146q39 -18 68.5 -29t54 -17t46.5 -8.5t47 -2.5q23 0 49 11t53 28.5t53.5 39t48.5 43.5h-73l-382 600h190l320 -492h25z" />
    <glyph glyph-name="z" unicode="z" horiz-adv-x="934" 
d="M40 600h854v-169l-562 -257v-9h562v-165h-854v169l557 255v11h-557v165z" />
    <glyph glyph-name="braceleft" unicode="{" horiz-adv-x="524" 
d="M40 432q52 0 82 9.5t54 35.5q18 20 18 58v174q0 47 17.5 87.5t48 71t71.5 48t87 17.5h106v-165h-48q-25 0 -46.5 -9.5t-37 -25.5t-24.5 -37.5t-9 -44.5v-194q0 -9 -2.5 -22.5t-10 -28.5t-22.5 -28.5t-41 -21.5q25 -6 40 -18t23 -26t10.5 -28.5t2.5 -25.5v-189
q0 -23 8.5 -44t23.5 -37.5t37 -26t49 -9.5h47v-165h-106q-46 0 -87 17.5t-71.5 48t-48 71t-17.5 87.5v170q0 35 -18 58q-21 28 -52.5 36.5t-83.5 8.5v148z" />
    <glyph glyph-name="braceright" unicode="}" horiz-adv-x="524" 
d="M484 432v-148q-52 0 -83.5 -8.5t-52.5 -36.5q-18 -23 -18 -58v-170q0 -47 -17.5 -87.5t-48 -71t-71 -48t-87.5 -17.5h-106v165h47q27 0 49 9.5t37 26t23.5 37.5t8.5 44v189q0 11 2.5 25.5t10.5 28.5t23 26t40 18q-25 8 -40.5 21.5t-23 28.5t-10 28.5t-2.5 22.5v194
q0 23 -9 44.5t-24.5 37.5t-37 25.5t-46.5 9.5h-48v165h106q47 0 87.5 -17.5t71 -48t48 -71t17.5 -87.5v-174q0 -38 18 -58q24 -26 54 -35.5t82 -9.5z" />
    <glyph glyph-name="asciitilde" unicode="~" horiz-adv-x="920" 
d="M51 180q0 168 41.5 244t173.5 76q84 0 125.5 -26.5t70.5 -59.5q33 -38 73.5 -57t74.5 -19h3q54 1 76.5 38t27.5 124h150q0 -152 -53 -236t-155 -84q-58 0 -105.5 21.5t-95.5 66.5q-33 31 -71.5 53t-75.5 22q-60 0 -82.5 -38.5t-28.5 -124.5h-149z" />
    <glyph glyph-name="exclamdown" unicode="&#xa1;" horiz-adv-x="380" 
d="M287 455h-194v145h194v-145zM283 360l8 -465h-202l9 465h185z" />
    <glyph glyph-name="cent" unicode="&#xa2;" horiz-adv-x="1008" 
d="M803 389q0 15 -6 34t-19.5 35t-34.5 27t-51 11h-113v-270h113q27 0 47.5 11t35 27.5t21.5 36.5t7 37h165v-43q0 -47 -17 -89.5t-47.5 -74.5t-73.5 -51t-95 -19h-156v-141h-155v141h-160q-46 0 -87 18.5t-71.5 51t-48 76.5t-17.5 95v119q0 50 17.5 94t48 76.5t71.5 51
t87 18.5h160v139h155v-139h156q52 0 95 -20t73.5 -53.5t47.5 -76t17 -87.5v-35h-165zM424 496h-103q-22 0 -43 -10t-37.5 -27t-26 -41t-9.5 -53v-8q0 -28 9.5 -52t26 -41.5t37.5 -27.5t43 -10h103v270z" />
    <glyph glyph-name="sterling" unicode="&#xa3;" horiz-adv-x="803" 
d="M432 686q-70 0 -70 -85v-72h186v-147h-186v-44q0 -29 -6 -57.5t-19.5 -51.5t-34.5 -39t-50 -19v-6h511v-165h-726v165h20q21 0 45.5 15.5t45.5 40t35 56t14 63.5v42h-163v147h163v121q0 39 10.5 73t31 59.5t50 40t68.5 14.5h28q26 0 65 -4t82.5 -10.5t89 -16.5t84.5 -22
v-134q-24 7 -61 13.5t-75 11.5t-70 8t-46 3h-22z" />
    <glyph glyph-name="currency" unicode="&#xa4;" horiz-adv-x="1086" 
d="M153 437q0 29 7.5 51.5t15.5 39.5l-125 125l99 99l120 -120q20 11 47 21.5t63 10.5h334q35 0 59 -8.5t43 -17.5l116 116l99 -100l-114 -114q10 -19 21 -46t11 -61v-143q0 -38 -10 -64.5t-22 -48.5l118 -118l-100 -99l-127 127q-17 -8 -41 -15.5t-53 -7.5h-334
q-31 0 -54.5 10t-40.5 19l-134 -134l-100 100l131 131q-11 20 -20 43.5t-9 57.5v146zM672 229q22 0 42 9.5t35.5 25.5t25 38.5t9.5 47.5v34q0 21 -8 41.5t-23 37t-35.5 26.5t-44.5 10h-237q-25 0 -46.5 -9.5t-37.5 -25.5t-25 -37.5t-9 -45.5v-34q0 -22 9.5 -43.5t26 -38
t37.5 -26.5t44 -10h237z" />
    <glyph glyph-name="yen" unicode="&#xa5;" horiz-adv-x="1155" 
d="M581 411l310 309h221l-400 -410h251v-79h-300v-55h300v-79h-300v-97h-164v97h-303v79h303v55h-303v79h253l-406 410h222z" />
    <glyph glyph-name="section" unicode="&#xa7;" horiz-adv-x="911" 
d="M856 520q-46 30 -83.5 39.5t-73.5 9.5h-457q-26 0 -47 -14.5t-21 -40.5q0 -16 11.5 -29.5t33.5 -13.5h474q33 0 62.5 -6t52 -18.5t36 -32t13.5 -46.5q0 -20 -9 -37t-25 -30q23 -17 35.5 -46.5t12.5 -67.5q0 -39 -14.5 -73t-40 -59.5t-59.5 -40t-73 -14.5h-472
q-38 0 -74.5 9.5t-82.5 39.5v166q46 -30 83.5 -40t73.5 -10h455q32 0 52 16t20 39q0 17 -13 30.5t-31 13.5h-472q-36 0 -67 6t-53.5 18.5t-35.5 31.5t-13 45q0 21 9 38.5t24 29.5q-47 38 -47 114q0 39 14.5 73t40 59.5t59.5 40t73 14.5h472q38 0 74.5 -9.5t82.5 -39.5v-165z
M142 367q0 -17 18 -23t36 -6h526q7 0 15.5 1t15.5 4t12 9t5 15q0 15 -16.5 22.5t-34.5 7.5h-530q-7 0 -15 -1t-15 -4.5t-12 -9.5t-5 -15z" />
    <glyph glyph-name="copyright" unicode="&#xa9;" 
d="M537 -38q-148 0 -250.5 52t-154.5 145t-52 212q0 122 52 221t156.5 153.5t248.5 54.5q146 0 247 -54.5t154.5 -153.5t53.5 -221q0 -119 -53.5 -212t-154.5 -145t-247 -52zM537 34q181 0 279.5 87.5t98.5 249.5q0 110 -45 191t-130.5 124.5t-202.5 43.5
q-121 0 -205.5 -43.5t-129.5 -125.5t-45 -190q0 -162 98.5 -249.5t281.5 -87.5zM807 423h-92q0 18 -13.5 37t-45.5 19h-227q-26 0 -45 -17.5t-19 -46.5v-81q0 -26 17 -44.5t46 -18.5h228q29 0 44 19t15 40h92v-11q0 -25 -9.5 -50.5t-26 -45t-40 -32t-51.5 -12.5h-285
q-25 0 -47.5 9.5t-39 26t-26 39t-9.5 47.5v148q0 26 9.5 48t26 38.5t39 26t47.5 9.5h285q28 0 51.5 -12.5t40 -32t26 -44t9.5 -48.5v-11z" />
    <glyph glyph-name="guillemotleft" unicode="&#xab;" horiz-adv-x="1012" 
d="M460 300l234 300h215l-234 -300l234 -300h-215zM40 300l234 300h215l-234 -300l234 -300h-215z" />
    <glyph glyph-name="logicalnot" unicode="&#xac;" horiz-adv-x="920" 
d="M60 455h800v-400h-162v268h-638v132z" />
    <glyph glyph-name="registered" unicode="&#xae;" horiz-adv-x="499" 
d="M250 337q-68 0 -115 24t-71 66.5t-24 97.5q0 56 24 101.5t72 70.5t114 25q67 0 113.5 -25t71 -70.5t24.5 -101.5q0 -55 -24.5 -97.5t-71 -66.5t-113.5 -24zM250 373q82 0 126.5 39t44.5 113q0 50 -20 86.5t-59 56.5t-92 20q-55 0 -93.5 -20t-58.5 -57t-20 -86
q0 -74 44.5 -113t127.5 -39zM356 452h-47l-32 48h-83v-48h-40v156h157q20 0 34 -13.5t14 -29.5v-19q0 -14 -11 -27.5t-25 -16.5zM320 554v2q0 13 -17 13h-109v-28h109q17 0 17 13z" />
    <glyph glyph-name="plusminus" unicode="&#xb1;" horiz-adv-x="920" 
d="M554 710v-163h306v-154h-306v-163h-188v163h-306v154h306v163h188zM860 15h-800v148h800v-148z" />
    <glyph glyph-name="paragraph" unicode="&#xb6;" horiz-adv-x="947" 
d="M599 800v-950h-165v470q-138 0 -212 12t-128 64.5t-54 163.5t54 163.5t128 64.5t212 12h165zM742 -150v950h165v-950h-165z" />
    <glyph glyph-name="periodcentered" unicode="&#xb7;" horiz-adv-x="360" 
d="M83 230v145h194v-145h-194z" />
    <glyph glyph-name="guillemotright" unicode="&#xbb;" horiz-adv-x="1012" 
d="M972.002 300l-233.985 300h-214.986l233.985 -300l-233.985 -300h214.986zM552.002 300l-233.985 300h-214.986l233.985 -300l-233.985 -300h214.986z" />
    <glyph glyph-name="questiondown" unicode="&#xbf;" horiz-adv-x="866" 
d="M566 583v-145h-173v145h173zM575 392v-34q1 -46 -18 -72.5t-65 -49.5l-211 -117q-23 -12 -32 -28t-3.5 -30.5t24.5 -24t52 -9.5h283q69 1 129 12t102 47v-168q-37 -29 -88.5 -42t-105.5 -13h-425q-39 0 -73 14.5t-59.5 39.5t-40 59.5t-14.5 73.5v15q0 31 14 60.5t43 43.5
l229 126q29 14 47.5 26.5t18.5 29.5v41h193z" />
    <glyph glyph-name="multiply" unicode="&#xd7;" horiz-adv-x="884" 
d="M63 501l92 138l287 -191l287 191l92 -138l-230 -153l230 -153l-92 -138l-287 191l-287 -191l-92 138l230 153z" />
    <glyph glyph-name="divide" unicode="&#xf7;" horiz-adv-x="919" 
d="M372 549v117h174v-117h-174zM60 277v166h799v-166h-799zM372 49v117h174v-117h-174z" />
    <glyph glyph-name="endash" unicode="&#x2013;" horiz-adv-x="1160" 
d="M330 279v165h500v-165h-500z" />
    <glyph glyph-name="emdash" unicode="&#x2014;" horiz-adv-x="1360" 
d="M80 279v165h1200v-165h-1200z" />
    <glyph glyph-name="quoteleft" unicode="&#x2018;" horiz-adv-x="357" 
d="M248 400h-178l70 380h155z" />
    <glyph glyph-name="quoteright" unicode="&#x2019;" horiz-adv-x="390" 
d="M100 780h178l-63 -380h-155z" />
    <glyph glyph-name="quotesinglbase" unicode="&#x201a;" horiz-adv-x="360" 
d="M83 0v145h194v-145l-91 -178h-87l55 178h-71z" />
    <glyph glyph-name="quotedblleft" unicode="&#x201c;" horiz-adv-x="667" 
d="M248 400h-178l70 380h155zM558 400h-178l70 380h155z" />
    <glyph glyph-name="quotedblright" unicode="&#x201d;" horiz-adv-x="710" 
d="M100 780h178l-63 -380h-155zM410 780h178l-63 -380h-155z" />
    <glyph glyph-name="quotedblbase" unicode="&#x201e;" horiz-adv-x="670" 
d="M393 0v145h194v-145l-91 -178h-87l55 178h-71zM83 0v145h194v-145l-91 -178h-87l55 178h-71z" />
    <glyph glyph-name="bullet" unicode="&#x2022;" horiz-adv-x="693" 
d="M347 159q-117 0 -173 39t-56 123q0 83 56 122.5t173 39.5q116 0 172 -39.5t56 -122.5q0 -84 -56 -123t-172 -39z" />
    <glyph glyph-name="ellipsis" unicode="&#x2026;" horiz-adv-x="960" 
d="M83 0v145h194v-145h-194zM383 0v145h194v-145h-194zM683 0v145h194v-145h-194z" />
    <glyph glyph-name="perthousand" unicode="&#x2030;" horiz-adv-x="1887" 
d="M1045 720l-512 -720h-196l512 720h196zM40 545q0 36 14 68t38 56t56 37.5t68 13.5h121q41 0 74.5 -14.5t57.5 -39.5t37.5 -57.5t13.5 -67.5v-118q0 -37 -13.5 -68.5t-37.5 -55t-57.5 -37t-74.5 -13.5h-121q-36 0 -68 13.5t-56 37.5t-38 56t-14 69v120zM300 379
q38 0 64 24t26 69v31q-2 38 -23.5 62.5t-63.5 24.5h-41q-41 0 -66.5 -26.5t-25.5 -66.5v-26q0 -41 27 -66.5t67 -25.5h36zM849 295q0 36 14 68t38 56t56 38t68 14h121q41 0 74.5 -14.5t57.5 -39.5t37.5 -57.5t13.5 -67.5v-118q0 -37 -13.5 -68.5t-37.5 -55t-57.5 -37
t-74.5 -13.5h-121q-36 0 -68 13.5t-56 37.5t-38 56t-14 69v119zM1367 295q0 36 14 68t38 56t56 38t68 14h121q41 0 74.5 -14.5t57.5 -39.5t37.5 -57.5t13.5 -67.5v-118q0 -37 -13.5 -68.5t-37.5 -55t-57.5 -37t-74.5 -13.5h-121q-36 0 -68 13.5t-56 37.5t-38 56t-14 69v119z
M1109 130q38 0 64 24t26 69v31q-2 38 -23.5 62.5t-63.5 24.5h-41q-41 0 -66.5 -26.5t-25.5 -66.5v-26q0 -41 27 -66.5t67 -25.5h36zM1627 130q38 0 64 24t26 69v28q0 37 -22.5 63.5t-64.5 26.5h-41q-41 0 -66.5 -26.5t-25.5 -66.5v-26q0 -41 27 -66.5t67 -25.5h36z" />
    <glyph glyph-name="guilsinglleft" unicode="&#x2039;" horiz-adv-x="529" 
d="M40 300l234 300h215l-234 -300l234 -300h-215z" />
    <glyph glyph-name="guilsinglright" unicode="&#x203a;" horiz-adv-x="529" 
d="M40 600h215l234 -300l-234 -300h-215l234 300z" />
    <glyph glyph-name="fraction" unicode="&#x2044;" horiz-adv-x="630" 
d="M378 800h172l-284 -950h-172z" />
    <glyph glyph-name="Euro" unicode="&#x20ac;" horiz-adv-x="989" 
d="M40 468h65v42q0 39 14.5 76.5t40.5 67.5t62 48t80 18h453q54 0 105.5 -13t88.5 -42v-167q-21 18 -47.5 29t-57.5 17.5t-65.5 8.5t-70.5 2h-328q-20 0 -36 -8t-28 -20.5t-20 -28t-11 -30.5h405v-81h-411v-51h411v-80h-407q3 -14 10.5 -30t19.5 -29.5t28.5 -22.5t38.5 -9
h328q72 0 135.5 11t105.5 47v-168q-37 -29 -88.5 -42t-105.5 -13h-453q-44 0 -80 18t-62 48t-40.5 67.5t-14.5 76.5v46h-65v80h65v51h-65v81z" />
    <glyph glyph-name="uni20BF" unicode="&#x20bf;" 
d="M231 812h165v-92h110v92h165v-92h75q43 0 82.5 -17t70 -45t49 -63t18.5 -71v-11q0 -16 -6 -37.5t-20 -41t-36 -35t-54 -20.5v-22q36 0 63.5 -10t46.5 -26t28.5 -36t9.5 -40v-28q0 -37 -16.5 -75.5t-47.5 -70t-75 -51.5t-98 -20h-90v-92h-165v92h-110v-92h-165v92h-181
v720h181v92zM215 555v-111h494q32 0 49 6t25.5 14.5t10 16.5t1.5 12t-3 14.5t-12.5 21t-26.5 18.5t-44 8h-494zM215 280v-115h528q46 0 65.5 20t19.5 49q0 4 -2.5 12t-11 15.5t-25.5 13t-46 5.5h-528z" />
    <glyph glyph-name="trademark" unicode="&#x2122;" horiz-adv-x="1004" 
d="M949 698v-326h-77v209l-153 -209h-3l-151 208v-208h-78v249h-178v-248h-77v248h-177v77h524l139 -192l140 192h91z" />
    <glyph glyph-name="emptyset" unicode="&#x2205;" 
d="M775 0h-316l-75 -168l-151 67l45 101h-5q-46 0 -86.5 17.5t-71 48t-48 71t-17.5 86.5v274q0 46 17.5 86.5t48 71t71 48t86.5 17.5h326l65 146l151 -67l-35 -79q45 -1 85 -19t69.5 -48t46.5 -70.5t17 -85.5v-274q0 -46 -17.5 -86.5t-48 -71t-71 -48t-86.5 -17.5zM351 165
l175 390h-191q-25 0 -47 -9t-38.5 -24.5t-25.5 -37t-9 -47.5v-155q0 -24 8.5 -45.5t24.5 -37t37.5 -25t47.5 -9.5h18zM833 283v153q0 24 -8.5 45.5t-24 38t-36.5 26t-47 9.5h-10l-174 -390h181q27 0 48.5 9.5t37.5 25.5t24.5 37.5t8.5 45.5z" />
    <glyph glyph-name="product" unicode="&#x220f;" horiz-adv-x="1303" 
d="M1243 800v-165h-239v-724h-165v724h-375v-724h-165v724h-239v165h1183z" />
    <glyph glyph-name="minus" unicode="&#x2212;" horiz-adv-x="901" 
d="M51 278v166h800v-166h-800z" />
    <glyph glyph-name="integral" unicode="&#x222b;" horiz-adv-x="993" 
d="M60 15q81 0 134.5 8t97.5 38t68 137l74 329q37 166 106 240t157 91t236 17v-165h-17q-69 0 -118.5 -7.5t-97 -33.5t-73.5 -142l-74 -329q-38 -166 -105.5 -240.5t-153.5 -91t-234 -16.5v165z" />
    <glyph glyph-name="approxequal" unicode="&#x2248;" horiz-adv-x="920" 
d="M51 380q0 168 41.5 244t173.5 76q84 0 125.5 -26.5t70.5 -59.5q33 -38 73.5 -57t74.5 -19h3q54 1 76.5 38t27.5 124h150q0 -152 -53 -236t-155 -84q-58 0 -105.5 21.5t-95.5 66.5q-33 31 -71.5 53t-75.5 22q-60 0 -82.5 -38.5t-28.5 -124.5h-149zM51 0q0 168 41.5 244
t173.5 76q84 0 125.5 -26.5t70.5 -59.5q33 -38 73.5 -57t74.5 -19h3q54 1 76.5 38t27.5 124h150q0 -152 -53 -236t-155 -84q-58 0 -105.5 21.5t-95.5 66.5q-33 31 -71.5 53t-75.5 22q-60 0 -82.5 -38.5t-28.5 -124.5h-149z" />
    <glyph glyph-name="notequal" unicode="&#x2260;" horiz-adv-x="880" 
d="M40 411v165h416l70 144h179l-70 -144h205v-165h-286l-55 -112h341v-166h-422l-65 -133h-179l65 133h-199v166h280l55 112h-335z" />
    <glyph glyph-name="lessequal" unicode="&#x2264;" horiz-adv-x="920" 
d="M850.003 19.4297v132.221h-799.951v-132.221h799.951zM850.003 584.167v135.406l-799.951 -183.993v-159.302l799.951 -183.993v135.406l-593.964 128.238z" />
    <glyph glyph-name="greaterequal" unicode="&#x2265;" horiz-adv-x="920" 
d="M51 19.4297v132.221h800v-132.221h-800zM51 584.167v135.406l800 -183.993v-159.302l-800 -183.993v135.406l594 128.238z" />
    </font>
</defs>
</svg>
